<svg width="768" height="1091" viewBox="0 0 768 1091" fill="none" xmlns="http://www.w3.org/2000/svg">
<g clip-path="url(#clip0)">
<path d="M-1090.11 -133.962L2031.79 -133.962C2031.79 -133.962 2031.79 460.078 2031.79 906.67C1946.04 994.963 1831.55 1010.73 1651.8 1032.02C886.822 1122.61 680.915 789.725 -4.66068 1084.15C-328.454 1234.22 -837.835 1245.66 -1090.11 1128.99C-1090.11 938.622 -1090.11 925.591 -1090.11 925.591L-1090.11 -133.962Z" fill="url(#paint0_linear)"/>
<mask id="mask0" mask-type="alpha" maskUnits="userSpaceOnUse" x="-804" y="-15" width="2457" height="1056">
<path d="M-803.362 -14.9781L1652.05 -14.978C1652.05 -14.978 1652.06 452.243 1652.06 803.494C1584.61 872.938 1494.56 885.341 1353.19 902.082C751.523 973.332 589.573 711.515 50.3585 943.081C-204.31 1061.12 -604.945 1070.12 -803.362 978.349C-803.362 828.625 -803.362 818.375 -803.362 818.375L-803.362 -14.9781Z" fill="url(#paint1_linear)"/>
</mask>
<g mask="url(#mask0)">
<circle opacity="0.5" cx="0.0240658" cy="588.024" r="60.0769" transform="rotate(1.88839 0.0240658 588.024)" fill="url(#paint2_linear)"/>
<path opacity="0.3" d="M303.722 940.498C180.371 817.146 274.137 651 417.626 651C508.253 651 587.836 719.04 591.326 804.56C596.361 927.911 485.594 983.294 450.352 980.776C415.11 978.259 420.145 930.428 420.145 897.703M420.145 897.703C420.145 897.703 498.183 900.22 498.183 804.56C498.183 802.042 488.114 802.042 488.114 802.042M420.145 897.703C420.145 897.703 342.106 902.737 342.106 807.077C342.106 804.56 352.176 804.56 352.176 804.56M362.245 960.637C362.245 978.711 347.593 993.363 329.519 993.363C311.445 993.363 296.793 978.711 296.793 960.637C296.793 942.563 311.445 927.911 329.519 927.911C347.593 927.911 362.245 942.563 362.245 960.637Z" stroke="url(#paint3_linear)" stroke-width="25.1738" stroke-linecap="round" stroke-linejoin="round"/>
</g>
</g>
<defs>
<linearGradient id="paint0_linear" x1="1297.01" y1="-686.47" x2="-299.684" y2="1868.92" gradientUnits="userSpaceOnUse">
<stop stop-color="#2D5DD3"/>
<stop offset="1" stop-color="#00A39A"/>
</linearGradient>
<linearGradient id="paint1_linear" x1="1059.9" y1="-475.06" x2="-155.388" y2="1505.76" gradientUnits="userSpaceOnUse">
<stop stop-color="#2D5DD3"/>
<stop offset="1" stop-color="#00A39A"/>
</linearGradient>
<linearGradient id="paint2_linear" x1="57.9196" y1="568.463" x2="-33.8861" y2="526.462" gradientUnits="userSpaceOnUse">
<stop stop-color="#2D5DD3"/>
<stop offset="1" stop-color="#00A39A"/>
</linearGradient>
<linearGradient id="paint3_linear" x1="539.805" y1="956.919" x2="292.909" y2="618.626" gradientUnits="userSpaceOnUse">
<stop stop-color="#F3F2F8" stop-opacity="0"/>
<stop offset="1" stop-color="#F3F2F8" stop-opacity="0.5"/>
</linearGradient>
<clipPath id="clip0">
<rect width="768" height="1091" fill="white"/>
</clipPath>
</defs>
</svg>
