<svg width="64" height="64" viewBox="0 0 64 64" fill="none" xmlns="http://www.w3.org/2000/svg">
<circle cx="32" cy="32" r="32" fill="#FCEC5D"/>
<path d="M19.5081 17.5001V17.5001H19.5069H19.5069H19.5069H19.5069H19.5069H19.5069H19.5069H19.5069H19.5069H19.5068H19.5068H19.5068H19.5068H19.5068H19.5068H19.5068H19.5068H19.5068H19.5068H19.5068H19.5068H19.5068H19.5068H19.5068H19.5068H19.5068H19.5068H19.5067H19.5067H19.5067H19.5067H19.5067H19.5067H19.5067H19.5067H19.5067H19.5067H19.5067H19.5067H19.5067H19.5067H19.5067H19.5067H19.5067H19.5066H19.5066H19.5066H19.5066H19.5066H19.5066H19.5066H19.5066H19.5066H19.5066H19.5066H19.5066H19.5066H19.5066H19.5066H19.5066H19.5066H19.5065H19.5065H19.5065H19.5065H19.5065H19.5065H19.5065H19.5065H19.5065H19.5065H19.5065H19.5065H19.5065H19.5065H19.5065H19.5065H19.5065H19.5064H19.5064H19.5064H19.5064H19.5064H19.5064H19.5064H19.5064H19.5064H19.5064H19.5064H19.5064H19.5064H19.5064H19.5064H19.5064H19.5064H19.5063H19.5063H19.5063H19.5063H19.5063H19.5063H19.5063H19.5063H19.5063H19.5063H19.5063H19.5063H19.5063H19.5063H19.5063H19.5063H19.5063H19.5062H19.5062H19.5062H19.5062H19.5062H19.5062H19.5062H19.5062H19.5062H19.5062H19.5062H19.5062H19.5062H19.5062H19.5062H19.5062H19.5062H19.5061H19.5061H19.5061H19.5061H19.5061H19.5061H19.5061H19.5061H19.5061H19.5061H19.5061H19.5061H19.5061H19.5061H19.5061H19.5061H19.5061H19.506H19.506H19.506H19.506H19.506H19.506H19.506H19.506H19.506H19.506H19.506H19.506H19.506H19.506H19.506H19.506H19.506H19.5059H19.5059H19.5059H19.5059H19.5059H19.5059H19.5059H19.5059H19.5059H19.5059H19.5059H19.5059H19.5059H19.5059H19.5059H19.5059H19.5058H19.5058H19.5058H19.5058H19.5058H19.5058H19.5058H19.5058H19.5058H19.5058H19.5058H19.5058H19.5058H19.5058H19.5058H19.5058H19.5058H19.5057H19.5057H19.5057H19.5057H19.5057H19.5057H19.5057H19.5057H19.5057H19.5057H19.5057H19.5057H19.5057H19.5057H19.5057H19.5057H19.5057H19.5056H19.5056H19.5056H19.5056H19.5056H19.5056H19.5056H19.5056H19.5056H19.5056H19.5056H19.5056H19.5056H19.5056H19.5056H19.5056H19.5055H19.5055H19.5055H19.5055H19.5055H19.5055H19.5055H19.5055H19.5055H19.5055H19.5055H19.5055H19.5055H19.5055H19.5055H19.5055H19.5055H19.5054H19.5054H19.5054H19.5054H19.5054H19.5054H19.5054H19.5054H19.5054H19.5054H19.5054H19.5054H19.5054H19.5054H19.5054H19.5054H19.5053H19.5053H19.5053H19.5053H19.5053H19.5053H19.5053H19.5053H19.5053H19.5053H19.5053H19.5053H19.5053H19.5053H19.5053H19.5053H19.5053H19.5052H19.5052H19.5052H19.5052H19.5052H19.5052H19.5052H19.5052H19.5052H19.5052H19.5052H19.5052H19.5052H19.5052H19.5052H19.5052H19.5051H19.5051H19.5051H19.5051H19.5051H19.5051H19.5051H19.5051H19.5051H19.5051H19.5051H19.5051H19.5051H19.5051H19.5051H19.5051H19.5051H19.505H19.505H19.505H19.505H19.505H19.505H19.505H19.505H19.505H19.505H19.505H19.505H19.505H19.505H19.505H19.505H19.505H19.5049H19.5049H19.5049H19.5049H19.5049H19.5049H19.5049H19.5049H19.5049H19.5049H19.5049H19.5049H19.5049H19.5049H19.5049H19.5049H19.5048H19.5048H19.5048H19.5048H19.5048H19.5048H19.5048H19.5048H19.5048H19.5048H19.5048H19.5048H19.5048H19.5048H19.5048H19.5048H19.5048H19.5047H19.5047H19.5047H19.5047H19.5047H19.5047H19.5047H19.5047H19.5047H19.5047H19.5047H19.5047H19.5047H19.5047H19.5047H19.5047H19.5047H19.5046H19.5046H19.5046H19.5046H19.5046H19.5046H19.5046H19.5046H19.5046H19.5046H19.5046H19.5046H19.5046H19.5046H19.5046H19.5046H19.5046H19.5045H19.5045H19.5045H19.5045H19.5045H19.5045H19.5045H19.5045H19.5045H19.5045H19.5045H19.5045H19.5045H19.5045H19.5045H19.5045H19.5044H19.5044H19.5044H19.5044H19.5044H19.5044H19.5044H19.5044H19.5044H19.5044H19.5044H19.5044H19.5044H19.5044H19.5044H19.5044H19.5044H19.5043H19.5043H19.5043H19.5043H19.5043H19.5043H19.5043H19.5043H19.5043H19.5043H19.5043H19.5043H19.5043H19.5043H19.5043H19.5043H19.5043H19.5043H19.5042H19.5042H19.5042H19.5042H19.5042H19.5042H19.5042H19.5042H19.5042H19.5042H19.5042H19.5042H19.5042H19.5042H19.5042H19.5042H19.5042H19.5041H19.5041H19.5041H19.5041H19.5041H19.5041H19.5041H19.5041H19.5041H19.5041H19.5041H19.5041H19.5041H19.5041H19.5041H19.5041H19.5041H19.504H19.504H19.504H19.504H19.504H19.504H19.504H19.504H19.504H19.504H19.504H19.504H19.504H19.504H19.504H19.504H19.504H19.5039H19.5039H19.5039H19.5039H19.5039H19.5039H19.5039H19.5039H19.5039H19.5039H19.5039H19.5039H19.5039H19.5039H19.5039C19.0275 17.5001 18.5795 17.6903 18.2451 18.03L18.2451 18.03C17.9074 18.3728 17.7222 18.8299 17.7222 19.3116V38.9773C17.7222 39.9676 18.5173 40.7858 19.5107 40.7884H19.5108C22.4681 40.7956 27.3142 41.428 30.6355 44.9664L31.5 45.8875V44.6242V24.0435C31.5 23.7164 31.418 23.3951 31.25 23.1193L31.2498 23.119C28.2591 18.2158 22.5436 17.5074 19.5081 17.5001Z" fill="#FAFAFF" stroke="#0E0C34"/>
<path d="M45.755 18.0299L45.755 18.0299C45.4205 17.6902 44.9722 17.5 44.4963 17.5H44.4963H44.4963H44.4962H44.4962H44.4962H44.4962H44.4962H44.4962H44.4962H44.4962H44.4961H44.4961H44.4961H44.4961H44.4961H44.4961H44.4961H44.4961H44.496H44.496H44.496H44.496H44.496H44.496H44.496H44.4959H44.4959H44.4959H44.4959H44.4959H44.4959H44.4959H44.4959H44.4958H44.4958H44.4958H44.4958H44.4958H44.4958H44.4958H44.4958H44.4957H44.4957H44.4957H44.4957H44.4957H44.4957H44.4957H44.4957H44.4956H44.4956H44.4956H44.4956H44.4956H44.4956H44.4956H44.4956H44.4955H44.4955H44.4955H44.4955H44.4955H44.4955H44.4955H44.4955H44.4954H44.4954H44.4954H44.4954H44.4954H44.4954H44.4954H44.4954H44.4953H44.4953H44.4953H44.4953H44.4953H44.4953H44.4953H44.4952H44.4952H44.4952H44.4952H44.4952H44.4952H44.4952H44.4952H44.4951H44.4951H44.4951H44.4951H44.4951H44.4951H44.4951H44.4951H44.495H44.495H44.495H44.495H44.495H44.495H44.495H44.495H44.4949H44.4949H44.4949H44.4949H44.4949H44.4949H44.4949H44.4949H44.4948H44.4948H44.4948H44.4948H44.4948H44.4948H44.4948H44.4948H44.4947H44.4947H44.4947H44.4947H44.4947H44.4947H44.4947H44.4947H44.4946H44.4946H44.4946H44.4946H44.4946H44.4946H44.4946H44.4946H44.4945H44.4945H44.4945H44.4945H44.4945H44.4945H44.4945H44.4945H44.4944H44.4944H44.4944H44.4944H44.4944H44.4944H44.4944H44.4944H44.4944H44.4943H44.4943H44.4943H44.4943H44.4943H44.4943H44.4943H44.4943H44.4942H44.4942H44.4942H44.4942H44.4942H44.4942H44.4942H44.4942H44.4941H44.4941H44.4941H44.4941H44.4941H44.4941H44.4941H44.4941H44.494H44.494H44.494H44.494H44.494H44.494H44.494H44.494H44.4939H44.4939H44.4939H44.4939H44.4939H44.4939H44.4939H44.4939H44.4939H44.4938H44.4938H44.4938H44.4938H44.4938H44.4938H44.4938H44.4938H44.4937H44.4937H44.4937H44.4937H44.4937H44.4937H44.4937H44.4937H44.4937H44.4936H44.4936H44.4936H44.4936H44.4936H44.4936H44.4936H44.4936H44.4935H44.4935H44.4935H44.4935H44.4935H44.4935H44.4935H44.4935H44.4935H44.4934H44.4934H44.4934H44.4934H44.4934H44.4934H44.4934H44.4934H44.4933H44.4933H44.4933H44.4933H44.4933H44.4933H44.4933H44.4933H44.4933H44.4932H44.4932H44.4932H44.4932H44.4932H44.4932H44.4932H44.4932H44.4932H44.4931L44.4931 17.5L44.4919 17.5C41.4566 17.5074 35.741 18.2158 32.7502 23.119L32.7501 23.1193C32.582 23.3953 32.5001 23.7166 32.5001 24.0435V44.6241V45.8874L33.3647 44.9663C36.6859 41.4279 41.532 40.7955 44.4894 40.7883H44.4895C45.4827 40.7857 46.2779 39.9674 46.2779 38.9773V19.3115C46.2779 18.8298 46.0926 18.3727 45.755 18.0299Z" fill="#FAFAFF" stroke="#0E0C34"/>
<path d="M47.7779 22.0353H47.2779V22.5353V38.9773C47.2779 40.5506 46.0198 41.8207 44.4917 41.8245C41.9112 41.8308 37.5517 42.3394 34.4388 45.3387L33.0923 46.6362L34.9067 46.1839C39.9289 44.9321 45.2516 45.7441 48.3106 46.4538L48.3107 46.4538C48.8471 46.5781 49.403 46.4487 49.8309 46.1015L49.8311 46.1013C50.2573 45.7552 50.5 45.2383 50.5 44.6889V23.8467C50.5 23.8466 50.5 23.8466 50.5 23.8466C50.5001 22.8558 49.7066 22.0353 48.712 22.0353H47.7779Z" fill="#FAFAFF" stroke="#0E0C34"/>
<path d="M16.7221 22.5353V22.0353H16.2221H15.288C14.2934 22.0353 13.5 22.8559 13.5 23.8466V44.6885C13.5 45.2381 13.7428 45.7548 14.1689 46.101L14.169 46.1011C14.5965 46.448 15.1521 46.5781 15.6894 46.4534C18.7484 45.7436 24.0712 44.9317 29.0932 46.1836L30.9077 46.6359L29.561 45.3384C26.4483 42.3391 22.0888 41.8307 19.5083 41.8244C17.9803 41.8207 16.7221 40.5506 16.7221 38.9773V22.5353Z" fill="#FAFAFF" stroke="#0E0C34"/>
</svg>
