<svg width="64" height="64" viewBox="0 0 64 64" fill="none" xmlns="http://www.w3.org/2000/svg">
<circle cx="32" cy="32" r="32" fill="#FC2F6D"/>
<path d="M41.293 27.1135C43.9336 27.1135 46.0742 24.9729 46.0742 22.3323C46.0742 19.6917 43.9336 17.551 41.293 17.551C38.6524 17.551 36.5117 19.6917 36.5117 22.3323C36.5117 24.9729 38.6524 27.1135 41.293 27.1135Z" fill="#0E0C34"/>
<path d="M41.293 17.5508C40.9304 17.5508 40.5777 17.5925 40.2383 17.669C42.3712 18.1494 43.9648 20.054 43.9648 22.332C43.9648 24.6101 42.3712 26.5146 40.2383 26.9951C40.5777 27.0716 40.9304 27.1133 41.293 27.1133C43.9336 27.1133 46.0742 24.9726 46.0742 22.332C46.0742 19.6914 43.9336 17.5508 41.293 17.5508Z" fill="#0E0C34"/>
<path d="M22.3086 27.1139C24.9492 27.1139 27.0898 24.9733 27.0898 22.3326C27.0898 19.692 24.9492 17.5514 22.3086 17.5514C19.668 17.5514 17.5273 19.692 17.5273 22.3326C17.5273 24.9733 19.668 27.1139 22.3086 27.1139Z" fill="#0E0C34"/>
<path d="M22.3086 17.551C21.946 17.551 21.5934 17.5927 21.2539 17.6692C23.3868 18.1497 24.9805 20.0542 24.9805 22.3323C24.9805 24.6103 23.3868 26.5149 21.2539 26.9953C21.5934 27.0718 21.946 27.1135 22.3086 27.1135C24.9492 27.1135 27.0898 24.9729 27.0898 22.3323C27.0898 19.6917 24.9492 17.551 22.3086 17.551Z" fill="#0E0C34"/>
<path d="M31.8008 46.3086C39.4508 46.3086 45.6523 40.107 45.6523 32.457C45.6523 24.807 39.4508 18.6055 31.8008 18.6055C24.1508 18.6055 17.9492 24.807 17.9492 32.457C17.9492 40.107 24.1508 46.3086 31.8008 46.3086Z" fill="#FAFAFF"/>
<path d="M31.8008 44.1992C38.2858 44.1992 43.543 38.9421 43.543 32.457C43.543 25.972 38.2858 20.7148 31.8008 20.7148C25.3158 20.7148 20.0586 25.972 20.0586 32.457C20.0586 38.9421 25.3158 44.1992 31.8008 44.1992Z" fill="#FAFAFF"/>
<path d="M31.8008 20.7148C31.4453 20.7148 31.0936 20.7316 30.7461 20.7627C36.7284 21.2979 41.4336 26.3379 41.4336 32.457C41.4336 38.5762 36.7284 43.6162 30.7461 44.1513C31.0936 44.1824 31.4453 44.1992 31.8008 44.1992C38.2754 44.1992 43.543 38.9317 43.543 32.457C43.543 25.9824 38.2754 20.7148 31.8008 20.7148Z" fill="#FAFAFF"/>
<path d="M31.8008 33.3711C32.3833 33.3711 32.8555 32.8989 32.8555 32.3164C32.8555 31.7339 32.3833 31.2617 31.8008 31.2617C31.2183 31.2617 30.7461 31.7339 30.7461 32.3164C30.7461 32.8989 31.2183 33.3711 31.8008 33.3711Z" fill="#0E0C34"/>
<path d="M45.286 49.4731C49.2551 49.4731 52.4726 46.2556 52.4726 42.2865C52.4726 38.3174 49.2551 35.0999 45.286 35.0999C41.3169 35.0999 38.0994 38.3174 38.0994 42.2865C38.0994 46.2556 41.3169 49.4731 45.286 49.4731Z" fill="#FAFAFF"/>
<path d="M45.2861 35.0994C44.9278 35.0994 44.5757 35.1259 44.2314 35.1766C47.7005 35.6868 50.3634 38.6752 50.3634 42.2859C50.3634 45.8966 47.7005 48.885 44.2314 49.3953C44.5757 49.4459 44.9278 49.4726 45.2861 49.4726C49.2552 49.4726 52.4728 46.255 52.4728 42.2859C52.4728 38.3169 49.2552 35.0994 45.2861 35.0994Z" fill="#FAFAFF"/>
<path d="M42.1409 45.4312C41.4049 44.6951 41.4049 43.5018 42.1409 42.7657L45.7659 39.1406C46.502 38.4046 47.6953 38.4046 48.4314 39.1406C49.1674 39.8767 49.1674 41.07 48.4314 41.8061L44.8064 45.4312C44.0703 46.1673 42.8769 46.1673 42.1409 45.4312Z" fill="#0E0C34"/>
<path d="M42.1409 42.7654C41.4049 43.5014 41.4049 44.6948 42.1409 45.4309C42.8769 46.1669 44.0703 46.1669 44.8064 45.4309L46.6189 43.6184L43.9534 40.9529L42.1409 42.7654Z" fill="#FAFAFF"/>
<path d="M45.286 34.572C44.7998 34.572 44.3241 34.6177 43.8627 34.7041C43.9999 33.9654 44.0703 33.213 44.0703 32.457C44.0703 25.6916 38.5662 20.1875 31.8008 20.1875C29.8534 20.1875 27.9898 20.6326 26.2618 21.5104C24.6147 22.3471 23.1512 23.5691 22.0295 25.0443C21.8532 25.2762 21.8983 25.607 22.1301 25.7833C22.3621 25.9597 22.6929 25.9146 22.8691 25.6828C23.8951 24.3335 25.2335 23.2159 26.7395 22.4507C28.3181 21.6488 30.021 21.2422 31.8008 21.2422C37.9846 21.2422 43.0156 26.2732 43.0156 32.457C43.0156 33.3196 42.916 34.1772 42.7211 35.011C40.9581 35.6344 39.4873 36.8812 38.5752 38.4856L37.8913 37.8017C37.6852 37.5958 37.3514 37.5958 37.1454 37.8017C36.9395 38.0077 36.9395 38.3416 37.1454 38.5475L38.0942 39.4962C37.7825 40.2969 37.6009 41.1618 37.5753 42.0652C35.8343 43.1164 33.8444 43.6719 31.8008 43.6719C25.6169 43.6719 20.5859 38.6409 20.5859 32.457C20.5859 30.7931 20.9434 29.1907 21.6484 27.6943C21.7725 27.4308 21.6595 27.1166 21.396 26.9925C21.1325 26.8685 20.8184 26.9814 20.6942 27.2448C19.9225 28.8828 19.5312 30.6364 19.5312 32.457C19.5312 39.2225 25.0353 44.7266 31.8008 44.7266C33.848 44.7266 35.8467 44.2183 37.6321 43.2496C37.6784 43.6193 37.7513 43.9808 37.8481 44.3324C35.9866 45.2814 33.9052 45.7812 31.8008 45.7812C24.4538 45.7812 18.4766 39.804 18.4766 32.457C18.4766 25.1101 24.4538 19.1328 31.8008 19.1328C39.1477 19.1328 45.125 25.1101 45.125 32.457C45.125 32.7483 45.361 32.9844 45.6523 32.9844C45.9436 32.9844 46.1797 32.7483 46.1797 32.457C46.1797 30.2612 45.6842 28.1792 44.8004 26.3158C45.9351 25.3141 46.6016 23.8553 46.6016 22.332C46.6016 21.305 46.3075 20.3457 45.8004 19.5323L46.4165 19.0066C46.6381 18.8176 46.6644 18.4847 46.4754 18.2632C46.2864 18.0418 45.9535 18.0153 45.7319 18.2043L45.1556 18.6961C44.1868 17.6675 42.8141 17.0234 41.293 17.0234C39.6346 17.0234 38.0948 17.7876 37.0921 19.087C35.6086 18.4978 34.0044 18.1496 32.3281 18.0888V15.0547H33.6992C33.9905 15.0547 34.2266 14.8186 34.2266 14.5273C34.2266 14.236 33.9905 14 33.6992 14H29.9023C29.611 14 29.375 14.236 29.375 14.5273C29.375 14.8186 29.611 15.0547 29.9023 15.0547H31.2734V18.0888C29.5972 18.1496 27.993 18.4978 26.5095 19.087C25.5068 17.7876 23.967 17.0234 22.3086 17.0234C20.7875 17.0234 19.4147 17.6675 18.446 18.6961L17.8696 18.2043C17.6481 18.0153 17.3151 18.0418 17.1262 18.2632C16.9372 18.4847 16.9635 18.8176 17.1851 19.0066L17.8011 19.5323C17.294 20.3457 17 21.305 17 22.332C17 23.8553 17.6664 25.3141 18.8012 26.3158C17.9174 28.1792 17.4219 30.2612 17.4219 32.457C17.4219 38.5392 21.2179 43.7511 26.565 45.849L24.1411 49.1612C23.9691 49.3962 24.0202 49.7262 24.2553 49.8982C24.4883 50.0687 24.819 50.0207 24.9922 49.784L27.6067 46.2114C28.9342 46.617 30.3424 46.8359 31.8008 46.8359C33.2257 46.8359 34.6407 46.6218 35.9941 46.2104L38.6093 49.7841C38.7826 50.0208 39.1132 50.0688 39.3462 49.8983C39.5813 49.7263 39.6324 49.3962 39.4604 49.1613L37.0371 45.8498C37.4322 45.6956 37.8203 45.5232 38.2004 45.3342C39.3845 48.076 42.1146 50 45.286 50C49.5395 50 53 46.5395 53 42.286C53 38.0325 49.5395 34.572 45.286 34.572ZM41.293 18.0781C43.6385 18.0781 45.5469 19.9865 45.5469 22.332C45.5469 23.4833 45.0958 24.5519 44.2943 25.3454C42.8617 22.8386 40.6966 20.8023 38.0926 19.5298C38.895 18.6118 40.0526 18.0781 41.293 18.0781ZM18.0547 22.332C18.0547 19.9865 19.963 18.0781 22.3086 18.0781C23.549 18.0781 24.7066 18.6118 25.5089 19.5298C22.905 20.8023 20.7399 22.8386 19.3073 25.3454C18.5057 24.5519 18.0547 23.4833 18.0547 22.332ZM45.286 48.9453C41.614 48.9453 38.6267 45.958 38.6267 42.286C38.6267 38.614 41.614 35.6267 45.286 35.6267C48.958 35.6267 51.9453 38.614 51.9453 42.286C51.9453 45.958 48.958 48.9453 45.286 48.9453ZM22.168 32.8438H23.7148C24.0061 32.8438 24.2422 32.6077 24.2422 32.3164C24.2422 32.0251 24.0061 31.7891 23.7148 31.7891H22.168C21.8767 31.7891 21.6406 32.0251 21.6406 32.3164C21.6406 32.6077 21.8767 32.8438 22.168 32.8438ZM45.393 38.7679L41.7679 42.393C40.8274 43.3335 40.8274 44.8637 41.7679 45.8042H41.7679C42.7084 46.7447 44.2387 46.7445 45.1792 45.8042L48.8042 42.1791C49.7446 41.2387 49.7446 39.7084 48.8042 38.7679C47.8636 37.8274 46.3335 37.8274 45.393 38.7679ZM44.4334 45.0584C43.9042 45.5875 43.043 45.5876 42.5136 45.0584H42.5137C41.9844 44.5292 41.9844 43.668 42.5137 43.1388L43.9533 41.6991L45.873 43.6188L44.4334 45.0584ZM48.0584 41.4333L46.6188 42.8729L44.6991 40.9533L46.1388 39.5137C46.6679 38.9843 47.5291 38.9844 48.0584 39.5136C48.5876 40.0429 48.5876 40.9042 48.0584 41.4333ZM37.8913 27.1123L38.9852 26.0184C39.1911 25.8124 39.1911 25.4786 38.9852 25.2726C38.7792 25.0668 38.4453 25.0668 38.2394 25.2726L37.1455 26.3665C36.9396 26.5725 36.9396 26.9064 37.1455 27.1123C37.3514 27.3183 37.6853 27.3182 37.8913 27.1123ZM41.4336 32.8438C41.7249 32.8438 41.9609 32.6077 41.9609 32.3164C41.9609 32.0251 41.7249 31.7891 41.4336 31.7891H39.8867C39.5954 31.7891 39.3594 32.0251 39.3594 32.3164C39.3594 32.6077 39.5954 32.8438 39.8867 32.8438H41.4336ZM31.2734 40.543V42.0898C31.2734 42.3811 31.5095 42.6172 31.8008 42.6172C32.0921 42.6172 32.3281 42.3811 32.3281 42.0898V40.543C32.3281 40.2517 32.0921 40.0156 31.8008 40.0156C31.5095 40.0156 31.2734 40.2517 31.2734 40.543ZM31.2734 30.8251C30.6597 31.0428 30.2188 31.629 30.2188 32.3164C30.2188 33.1887 30.9285 33.8984 31.8008 33.8984C32.4882 33.8984 33.0744 33.4575 33.2921 32.8438H34.8137C35.105 32.8438 35.341 32.6077 35.341 32.3164C35.341 32.0251 35.105 31.7891 34.8137 31.7891H33.2921C33.1329 31.3403 32.7769 30.9843 32.3281 30.8251V27.1133C32.3281 26.822 32.0921 26.5859 31.8008 26.5859C31.5095 26.5859 31.2734 26.822 31.2734 27.1133V30.8251ZM31.8008 31.7891C32.1644 31.7891 32.3635 32.0744 32.3232 32.3846C32.2896 32.6432 32.0684 32.8438 31.8008 32.8438C31.51 32.8438 31.2734 32.6072 31.2734 32.3164C31.2734 32.0256 31.51 31.7891 31.8008 31.7891ZM31.8008 24.8984C32.0921 24.8984 32.3281 24.6624 32.3281 24.3711V22.8242C32.3281 22.5329 32.0921 22.2969 31.8008 22.2969C31.5095 22.2969 31.2734 22.5329 31.2734 22.8242V24.3711C31.2734 24.6624 31.5095 24.8984 31.8008 24.8984ZM25.7102 27.1123C25.9163 27.3182 26.2502 27.3183 26.456 27.1123C26.662 26.9063 26.662 26.5724 26.456 26.3665L25.3622 25.2726C25.1562 25.0668 24.8223 25.0668 24.6164 25.2726C24.4104 25.4787 24.4104 25.8125 24.6164 26.0184L25.7102 27.1123ZM24.6164 39.6414C24.8223 39.8474 25.1562 39.8473 25.3622 39.6414L26.456 38.5476C26.662 38.3416 26.662 38.0077 26.456 37.8018C26.25 37.5959 25.9162 37.5959 25.7102 37.8018L24.6164 38.8956C24.4105 39.1016 24.4105 39.4354 24.6164 39.6414Z" fill="#0E0C34"/>
</svg>
