<svg width="150" height="49" viewBox="0 0 150 49" fill="none" xmlns="http://www.w3.org/2000/svg">
<path d="M0 8.28796C0 3.86969 3.58172 0.287964 8 0.287964H142C146.418 0.287964 150 3.86969 150 8.28796V40.288C150 44.7062 146.418 48.288 142 48.288H8C3.58172 48.288 0 44.7062 0 40.288V8.28796Z" fill="#0E0C34"/>
<path fill-rule="evenodd" clip-rule="evenodd" d="M15.117 36.9958L15.0385 36.9205C14.7353 36.6 14.5545 36.1049 14.5488 35.4648V35.4342V12.3494C14.5488 11.6403 14.7608 11.1063 15.1158 10.786L28.2213 23.8912L15.117 36.9958ZM14.5488 35.4342V35.4648V35.4342ZM14.5488 35.4648V35.5883V35.4648ZM14.5488 12.3494V12.195V12.3494ZM14.5488 12.195V12.1947V12.195ZM14.5488 12.1947C14.5488 12.1923 14.5488 12.1908 14.5488 12.1893V12.1947ZM14.5488 12.1878V12.1851V12.1824V12.1797V12.177V12.1743V12.1716V12.1689V12.1686V12.1659V12.1632V12.1605L14.5491 12.1578V12.1551V12.1524V12.1497V12.147V12.1443V12.1416V12.1389L14.5494 12.1362V12.1338V12.1335V12.1311V12.1308V12.1284V12.1281V12.1257V12.1254V12.123L14.5497 12.1203V12.1176V12.1149V12.1122V12.1095L14.55 12.1068V12.1041V12.1014V12.099V12.0987L14.5503 12.0963V12.096V12.0936V12.0933V12.0909V12.0882L14.5506 12.0855V12.0828V12.0804V12.0801L14.5509 12.0777V12.0774V12.075V12.0723L14.5512 12.0696V12.0672V12.0669V12.0645V12.0643L14.5515 12.0619V12.0616V12.0592V12.0565L14.5518 12.0538V12.0514V12.0511V12.0487L14.5521 12.046V12.0433V12.0409L14.5524 12.0382V12.0355L14.5527 12.0328V12.0304V12.0301V12.0277L14.553 12.025V12.0223L14.5533 12.0199V12.0172V12.0199L14.553 12.0223V12.025L14.5527 12.0277V12.0301V12.0304V12.0328L14.5524 12.0355V12.0382L14.5521 12.0409V12.0433V12.046L14.5518 12.0487V12.0511V12.0514V12.0538L14.5515 12.0565V12.0592V12.0616V12.0619L14.5512 12.0643V12.0645V12.0669V12.0672V12.0696L14.5509 12.0723V12.075V12.0774V12.0777L14.5506 12.0801V12.0804V12.0828V12.0855L14.5503 12.0882V12.0909V12.0933V12.0936V12.096V12.0963L14.55 12.0987V12.099V12.1014V12.1041V12.1068L14.5497 12.1095V12.1122V12.1149V12.1176V12.1203L14.5494 12.123V12.1254V12.1257V12.1281V12.1284V12.1308V12.1311V12.1335V12.1338V12.1362L14.5491 12.1389V12.1416V12.1443V12.147V12.1497V12.1524V12.1551V12.1578L14.5488 12.1605V12.1632V12.1659V12.1686V12.1689V12.1716V12.1743V12.177V12.1797V12.1824V12.1851V12.1878ZM14.5536 12.0073C14.5536 12.007 14.5536 12.0064 14.5536 12.0061C14.5536 12.0064 14.5536 12.007 14.5536 12.0073Z" fill="url(#paint0_linear)"/>
<path fill-rule="evenodd" clip-rule="evenodd" d="M32.5892 28.4161L32.6891 28.3594L37.8646 25.4185C38.3582 25.1382 38.6868 24.7982 38.8511 24.4384C38.6874 24.7982 38.3585 25.1385 37.8646 25.4191L32.6891 28.3597L32.5892 28.4161ZM32.5907 28.261L28.2214 23.8911L32.5901 19.5222L37.8646 22.5185C38.5345 22.899 38.9105 23.3895 38.9732 23.8908C38.9732 23.8911 38.9732 23.892 38.9732 23.8926C38.9105 24.3928 38.5345 24.8836 37.8646 25.2641L32.5907 28.261Z" fill="url(#paint1_linear)"/>
<path fill-rule="evenodd" clip-rule="evenodd" d="M16.0514 37.4947H16.0352H16.0343L16.0182 37.4944H16.0173L16.0011 37.4938H16.0002L15.9843 37.4932H15.9834L15.9675 37.4926H15.9666L15.9507 37.4917H15.9498L15.9339 37.4905H15.933L15.9174 37.489H15.9165L15.9006 37.4878H15.8997L15.8841 37.486H15.8832L15.8676 37.4842H15.867L15.8514 37.4821H15.8505L15.8352 37.48H15.8343L15.8191 37.4776H15.8182L15.8029 37.4752H15.802L15.7867 37.4725H15.7861L15.7708 37.4698H15.7699L15.7549 37.4668H15.754L15.739 37.4635H15.7384L15.7234 37.4602H15.7225L15.7078 37.4566H15.7069L15.6922 37.453H15.6913L15.6766 37.4491H15.6757L15.6613 37.4452H15.6604L15.646 37.441H15.6451L15.6308 37.4365H15.6299L15.6155 37.432H15.6149C15.5852 37.423 15.5549 37.4125 15.5261 37.4015H15.5255L15.4542 37.3715H15.4536C15.4254 37.3586 15.3978 37.3448 15.3708 37.3301H15.3702L15.357 37.3226C15.2715 37.2749 15.1909 37.2179 15.1168 37.1508L15.1171 37.1505C15.1909 37.2167 15.2712 37.2743 15.357 37.3226L15.3702 37.3301H15.3708C15.3978 37.3451 15.4254 37.3586 15.4536 37.3715H15.4542L15.5255 37.4015H15.5261C15.5549 37.4125 15.5849 37.4227 15.6149 37.432H15.6155L15.6299 37.4365H15.6308L15.6451 37.441H15.646L15.6604 37.4452H15.6613L15.6757 37.4491H15.6766L15.6913 37.453H15.6922L15.7069 37.4566H15.7078L15.7225 37.4602H15.7234L15.7384 37.4635H15.739L15.754 37.4668H15.7549L15.7699 37.4698H15.7708L15.7861 37.4725H15.7867L15.802 37.4752H15.8029L15.8182 37.4776H15.8191L15.8343 37.48H15.8352L15.8505 37.4821H15.8514L15.867 37.4842H15.8676L15.8832 37.486H15.8841L15.8997 37.4878H15.9006L15.9165 37.489H15.9174L15.933 37.4905H15.9339L15.9498 37.4917H15.9507L15.9666 37.4926H15.9675L15.9834 37.4932H15.9843L16.0002 37.4938H16.0011L16.0173 37.4944H16.0182L16.0343 37.4947H16.0352H16.0514H16.0523H16.0514ZM16.0523 37.4947H16.0544H16.0553H16.0574H16.0583H16.0604H16.0613H16.0634H16.0643H16.0664H16.067H16.0694H16.07H16.0724H16.073L16.0754 37.4944H16.076H16.0784H16.079H16.0814H16.082H16.0844H16.085H16.0874H16.088H16.0907H16.091L16.0937 37.4941H16.094H16.0967H16.097H16.0997H16.1H16.1027H16.1033L16.1057 37.4938H16.1063H16.109H16.1093H16.112H16.1123L16.115 37.4935H16.1153H16.118H16.1183H16.121L16.1243 37.4932H16.1273H16.1276H16.1303L16.1336 37.4929H16.1366L16.1396 37.4926H16.1426L16.1459 37.4923H16.1489H16.1459L16.1426 37.4926H16.1396L16.1366 37.4929H16.1336L16.1303 37.4932H16.1276H16.1273H16.1243L16.121 37.4935H16.1183H16.118H16.1153H16.115L16.1123 37.4938H16.112H16.1093H16.109H16.1063H16.1057L16.1033 37.4941H16.1027H16.1H16.0997H16.097H16.0967H16.094H16.0937L16.091 37.4944H16.0907H16.088H16.0874H16.085H16.0844H16.082H16.0814H16.079H16.0784H16.076H16.0754L16.073 37.4947H16.0724H16.07H16.0694H16.067H16.0664H16.0643H16.0634H16.0613H16.0604H16.0583H16.0574H16.0553H16.0544H16.0523ZM16.0517 37.3397C15.6856 37.3403 15.3663 37.2206 15.1171 36.9961V36.9958L28.2214 23.8912L32.5907 28.2611L17.2367 36.985C16.8121 37.2257 16.4094 37.3397 16.0517 37.3397ZM15.1135 37.1481C15.0901 37.1271 15.0677 37.1046 15.0452 37.0815L15.1135 37.1481Z" fill="url(#paint2_linear)"/>
<path fill-rule="evenodd" clip-rule="evenodd" d="M28.2212 23.8912L15.1157 10.786C15.3649 10.5614 15.6839 10.4424 16.0494 10.4424C16.408 10.4424 16.811 10.5569 17.2365 10.7983L32.5899 19.5222L28.2212 23.8912ZM32.6888 19.4232L17.2365 10.6439C16.811 10.4025 16.408 10.288 16.0494 10.288C16.0476 10.288 16.0467 10.288 16.0449 10.288C16.047 10.288 16.0485 10.288 16.0512 10.288C16.4089 10.288 16.8113 10.4019 17.2365 10.6433L32.6888 19.4232Z" fill="url(#paint3_linear)"/>
<path d="M49.718 12.033C50.384 12.033 50.966 12.162 51.464 12.42C51.968 12.672 52.355 13.038 52.625 13.518C52.901 13.992 53.039 14.547 53.039 15.183C53.039 15.819 52.901 16.371 52.625 16.839C52.355 17.307 51.968 17.667 51.464 17.919C50.966 18.165 50.384 18.288 49.718 18.288H47.675V12.033H49.718ZM49.718 17.451C50.45 17.451 51.011 17.253 51.401 16.857C51.791 16.461 51.986 15.903 51.986 15.183C51.986 14.457 51.791 13.89 51.401 13.482C51.011 13.074 50.45 12.87 49.718 12.87H48.701V17.451H49.718ZM55.0819 12.033V18.288H54.0559V12.033H55.0819ZM58.4899 18.351C58.0699 18.351 57.6919 18.279 57.3559 18.135C57.0199 17.985 56.7559 17.775 56.5639 17.505C56.3719 17.235 56.2759 16.92 56.2759 16.56H57.3739C57.3979 16.83 57.5029 17.052 57.6889 17.226C57.8809 17.4 58.1479 17.487 58.4899 17.487C58.8439 17.487 59.1199 17.403 59.3179 17.235C59.5159 17.061 59.6149 16.839 59.6149 16.569C59.6149 16.359 59.5519 16.188 59.4259 16.056C59.3059 15.924 59.1529 15.822 58.9669 15.75C58.7869 15.678 58.5349 15.6 58.2109 15.516C57.8029 15.408 57.4699 15.3 57.2119 15.192C56.9599 15.078 56.7439 14.904 56.5639 14.67C56.3839 14.436 56.2939 14.124 56.2939 13.734C56.2939 13.374 56.3839 13.059 56.5639 12.789C56.7439 12.519 56.9959 12.312 57.3199 12.168C57.6439 12.024 58.0189 11.952 58.4449 11.952C59.0509 11.952 59.5459 12.105 59.9299 12.411C60.3199 12.711 60.5359 13.125 60.5779 13.653H59.4439C59.4259 13.425 59.3179 13.23 59.1199 13.068C58.9219 12.906 58.6609 12.825 58.3369 12.825C58.0429 12.825 57.8029 12.9 57.6169 13.05C57.4309 13.2 57.3379 13.416 57.3379 13.698C57.3379 13.89 57.3949 14.049 57.5089 14.175C57.6289 14.295 57.7789 14.391 57.9589 14.463C58.1389 14.535 58.3849 14.613 58.6969 14.697C59.1109 14.811 59.4469 14.925 59.7049 15.039C59.9689 15.153 60.1909 15.33 60.3709 15.57C60.5569 15.804 60.6499 16.119 60.6499 16.515C60.6499 16.833 60.5629 17.133 60.3889 17.415C60.2209 17.697 59.9719 17.925 59.6419 18.099C59.3179 18.267 58.9339 18.351 58.4899 18.351ZM66.2345 13.896C66.2345 14.214 66.1595 14.514 66.0095 14.796C65.8595 15.078 65.6195 15.309 65.2895 15.489C64.9595 15.663 64.5365 15.75 64.0205 15.75H62.8865V18.288H61.8605V12.033H64.0205C64.5005 12.033 64.9055 12.117 65.2355 12.285C65.5715 12.447 65.8205 12.669 65.9825 12.951C66.1505 13.233 66.2345 13.548 66.2345 13.896ZM64.0205 14.913C64.4105 14.913 64.7015 14.826 64.8935 14.652C65.0855 14.472 65.1815 14.22 65.1815 13.896C65.1815 13.212 64.7945 12.87 64.0205 12.87H62.8865V14.913H64.0205ZM70.0661 18.351C69.4841 18.351 68.9471 18.216 68.4551 17.946C67.9691 17.67 67.5821 17.289 67.2941 16.803C67.0121 16.311 66.8711 15.759 66.8711 15.147C66.8711 14.535 67.0121 13.986 67.2941 13.5C67.5821 13.014 67.9691 12.636 68.4551 12.366C68.9471 12.09 69.4841 11.952 70.0661 11.952C70.6541 11.952 71.1911 12.09 71.6771 12.366C72.1691 12.636 72.5561 13.014 72.8381 13.5C73.1201 13.986 73.2611 14.535 73.2611 15.147C73.2611 15.759 73.1201 16.311 72.8381 16.803C72.5561 17.289 72.1691 17.67 71.6771 17.946C71.1911 18.216 70.6541 18.351 70.0661 18.351ZM70.0661 17.46C70.4801 17.46 70.8491 17.367 71.1731 17.181C71.4971 16.989 71.7491 16.719 71.9291 16.371C72.1151 16.017 72.2081 15.609 72.2081 15.147C72.2081 14.685 72.1151 14.28 71.9291 13.932C71.7491 13.584 71.4971 13.317 71.1731 13.131C70.8491 12.945 70.4801 12.852 70.0661 12.852C69.6521 12.852 69.2831 12.945 68.9591 13.131C68.6351 13.317 68.3801 13.584 68.1941 13.932C68.0141 14.28 67.9241 14.685 67.9241 15.147C67.9241 15.609 68.0141 16.017 68.1941 16.371C68.3801 16.719 68.6351 16.989 68.9591 17.181C69.2831 17.367 69.6521 17.46 70.0661 17.46ZM79.4097 18.288H78.3837L75.2967 13.617V18.288H74.2707V12.024H75.2967L78.3837 16.686V12.024H79.4097V18.288ZM81.783 12.033V18.288H80.757V12.033H81.783ZM82.197 10.692L80.208 11.673V10.917L82.197 9.81896V10.692ZM88.5211 12.033L86.1721 18.288H84.9841L82.6261 12.033H83.7241L85.5781 17.235L87.4411 12.033H88.5211ZM90.4051 12.861V14.697H92.5651V15.534H90.4051V17.451H92.8351V18.288H89.3791V12.024H92.8351V12.861H90.4051ZM95.1248 17.46H97.2398V18.288H94.0988V12.033H95.1248V17.46ZM105.575 18.288H104.549L101.462 13.617V18.288H100.436V12.024H101.462L104.549 16.686V12.024H105.575V18.288ZM109.775 18.351C109.193 18.351 108.656 18.216 108.164 17.946C107.678 17.67 107.291 17.289 107.003 16.803C106.721 16.311 106.58 15.759 106.58 15.147C106.58 14.535 106.721 13.986 107.003 13.5C107.291 13.014 107.678 12.636 108.164 12.366C108.656 12.09 109.193 11.952 109.775 11.952C110.363 11.952 110.9 12.09 111.386 12.366C111.878 12.636 112.265 13.014 112.547 13.5C112.829 13.986 112.97 14.535 112.97 15.147C112.97 15.759 112.829 16.311 112.547 16.803C112.265 17.289 111.878 17.67 111.386 17.946C110.9 18.216 110.363 18.351 109.775 18.351ZM109.775 17.46C110.189 17.46 110.558 17.367 110.882 17.181C111.206 16.989 111.458 16.719 111.638 16.371C111.824 16.017 111.917 15.609 111.917 15.147C111.917 14.685 111.824 14.28 111.638 13.932C111.458 13.584 111.206 13.317 110.882 13.131C110.558 12.945 110.189 12.852 109.775 12.852C109.361 12.852 108.992 12.945 108.668 13.131C108.344 13.317 108.089 13.584 107.903 13.932C107.723 14.28 107.633 14.685 107.633 15.147C107.633 15.609 107.723 16.017 107.903 16.371C108.089 16.719 108.344 16.989 108.668 17.181C108.992 17.367 109.361 17.46 109.775 17.46Z" fill="#FAFAFF"/>
<path d="M55.325 27.968C55.085 27.528 54.755 27.193 54.335 26.963C53.915 26.733 53.425 26.618 52.865 26.618C52.245 26.618 51.695 26.758 51.215 27.038C50.735 27.318 50.36 27.718 50.09 28.238C49.82 28.758 49.685 29.358 49.685 30.038C49.685 30.738 49.82 31.348 50.09 31.868C50.37 32.388 50.755 32.788 51.245 33.068C51.735 33.348 52.305 33.488 52.955 33.488C53.755 33.488 54.41 33.278 54.92 32.858C55.43 32.428 55.765 31.833 55.925 31.073H52.325V29.468H57.995V31.298C57.855 32.028 57.555 32.703 57.095 33.323C56.635 33.943 56.04 34.443 55.31 34.823C54.59 35.193 53.78 35.378 52.88 35.378C51.87 35.378 50.955 35.153 50.135 34.703C49.325 34.243 48.685 33.608 48.215 32.798C47.755 31.988 47.525 31.068 47.525 30.038C47.525 29.008 47.755 28.088 48.215 27.278C48.685 26.458 49.325 25.823 50.135 25.373C50.955 24.913 51.865 24.683 52.865 24.683C54.045 24.683 55.07 24.973 55.94 25.553C56.81 26.123 57.41 26.928 57.74 27.968H55.325ZM63.2387 35.423C62.4387 35.423 61.7187 35.248 61.0787 34.898C60.4387 34.538 59.9337 34.033 59.5637 33.383C59.2037 32.733 59.0237 31.983 59.0237 31.133C59.0237 30.283 59.2087 29.533 59.5787 28.883C59.9587 28.233 60.4737 27.733 61.1237 27.383C61.7737 27.023 62.4987 26.843 63.2987 26.843C64.0987 26.843 64.8237 27.023 65.4737 27.383C66.1237 27.733 66.6337 28.233 67.0037 28.883C67.3837 29.533 67.5737 30.283 67.5737 31.133C67.5737 31.983 67.3787 32.733 66.9887 33.383C66.6087 34.033 66.0887 34.538 65.4287 34.898C64.7787 35.248 64.0487 35.423 63.2387 35.423ZM63.2387 33.593C63.6187 33.593 63.9737 33.503 64.3037 33.323C64.6437 33.133 64.9137 32.853 65.1137 32.483C65.3137 32.113 65.4137 31.663 65.4137 31.133C65.4137 30.343 65.2037 29.738 64.7837 29.318C64.3737 28.888 63.8687 28.673 63.2687 28.673C62.6687 28.673 62.1637 28.888 61.7537 29.318C61.3537 29.738 61.1537 30.343 61.1537 31.133C61.1537 31.923 61.3487 32.533 61.7387 32.963C62.1387 33.383 62.6387 33.593 63.2387 33.593ZM72.8041 35.423C72.0041 35.423 71.2841 35.248 70.6441 34.898C70.0041 34.538 69.4991 34.033 69.1291 33.383C68.7691 32.733 68.5891 31.983 68.5891 31.133C68.5891 30.283 68.7741 29.533 69.1441 28.883C69.5241 28.233 70.0391 27.733 70.6891 27.383C71.3391 27.023 72.0641 26.843 72.8641 26.843C73.6641 26.843 74.3891 27.023 75.0391 27.383C75.6891 27.733 76.1991 28.233 76.5691 28.883C76.9491 29.533 77.1391 30.283 77.1391 31.133C77.1391 31.983 76.9441 32.733 76.5541 33.383C76.1741 34.033 75.6541 34.538 74.9941 34.898C74.3441 35.248 73.6141 35.423 72.8041 35.423ZM72.8041 33.593C73.1841 33.593 73.5391 33.503 73.8691 33.323C74.2091 33.133 74.4791 32.853 74.6791 32.483C74.8791 32.113 74.9791 31.663 74.9791 31.133C74.9791 30.343 74.7691 29.738 74.3491 29.318C73.9391 28.888 73.4341 28.673 72.8341 28.673C72.2341 28.673 71.7291 28.888 71.3191 29.318C70.9191 29.738 70.7191 30.343 70.7191 31.133C70.7191 31.923 70.9141 32.533 71.3041 32.963C71.7041 33.383 72.2041 33.593 72.8041 33.593ZM81.9345 26.843C82.5545 26.843 83.0995 26.968 83.5695 27.218C84.0395 27.458 84.4095 27.773 84.6795 28.163V26.978H86.7945V35.348C86.7945 36.118 86.6395 36.803 86.3295 37.403C86.0195 38.013 85.5545 38.493 84.9345 38.843C84.3145 39.203 83.5645 39.383 82.6845 39.383C81.5045 39.383 80.5345 39.108 79.7745 38.558C79.0245 38.008 78.5995 37.258 78.4995 36.308H80.5845C80.6945 36.688 80.9295 36.988 81.2895 37.208C81.6595 37.438 82.1045 37.553 82.6245 37.553C83.2345 37.553 83.7295 37.368 84.1095 36.998C84.4895 36.638 84.6795 36.088 84.6795 35.348V34.058C84.4095 34.448 84.0345 34.773 83.5545 35.033C83.0845 35.293 82.5445 35.423 81.9345 35.423C81.2345 35.423 80.5945 35.243 80.0145 34.883C79.4345 34.523 78.9745 34.018 78.6345 33.368C78.3045 32.708 78.1395 31.953 78.1395 31.103C78.1395 30.263 78.3045 29.518 78.6345 28.868C78.9745 28.218 79.4295 27.718 79.9995 27.368C80.5795 27.018 81.2245 26.843 81.9345 26.843ZM84.6795 31.133C84.6795 30.623 84.5795 30.188 84.3795 29.828C84.1795 29.458 83.9095 29.178 83.5695 28.988C83.2295 28.788 82.8645 28.688 82.4745 28.688C82.0845 28.688 81.7245 28.783 81.3945 28.973C81.0645 29.163 80.7945 29.443 80.5845 29.813C80.3845 30.173 80.2845 30.603 80.2845 31.103C80.2845 31.603 80.3845 32.043 80.5845 32.423C80.7945 32.793 81.0645 33.078 81.3945 33.278C81.7345 33.478 82.0945 33.578 82.4745 33.578C82.8645 33.578 83.2295 33.483 83.5695 33.293C83.9095 33.093 84.1795 32.813 84.3795 32.453C84.5795 32.083 84.6795 31.643 84.6795 31.133ZM90.9455 24.188V35.288H88.8455V24.188H90.9455ZM100.745 30.953C100.745 31.253 100.725 31.523 100.685 31.763H94.6104C94.6604 32.363 94.8704 32.833 95.2404 33.173C95.6104 33.513 96.0654 33.683 96.6054 33.683C97.3854 33.683 97.9404 33.348 98.2704 32.678H100.535C100.295 33.478 99.8354 34.138 99.1554 34.658C98.4754 35.168 97.6404 35.423 96.6504 35.423C95.8504 35.423 95.1304 35.248 94.4904 34.898C93.8604 34.538 93.3654 34.033 93.0054 33.383C92.6554 32.733 92.4804 31.983 92.4804 31.133C92.4804 30.273 92.6554 29.518 93.0054 28.868C93.3554 28.218 93.8454 27.718 94.4754 27.368C95.1054 27.018 95.8304 26.843 96.6504 26.843C97.4404 26.843 98.1454 27.013 98.7654 27.353C99.3954 27.693 99.8804 28.178 100.22 28.808C100.57 29.428 100.745 30.143 100.745 30.953ZM98.5704 30.353C98.5604 29.813 98.3654 29.383 97.9854 29.063C97.6054 28.733 97.1404 28.568 96.5904 28.568C96.0704 28.568 95.6304 28.728 95.2704 29.048C94.9204 29.358 94.7054 29.793 94.6254 30.353H98.5704ZM113.487 28.058C113.487 28.618 113.352 29.143 113.082 29.633C112.822 30.123 112.407 30.518 111.837 30.818C111.277 31.118 110.567 31.268 109.707 31.268H107.952V35.288H105.852V24.818H109.707C110.517 24.818 111.207 24.958 111.777 25.238C112.347 25.518 112.772 25.903 113.052 26.393C113.342 26.883 113.487 27.438 113.487 28.058ZM109.617 29.573C110.197 29.573 110.627 29.443 110.907 29.183C111.187 28.913 111.327 28.538 111.327 28.058C111.327 27.038 110.757 26.528 109.617 26.528H107.952V29.573H109.617ZM117.078 24.188V35.288H114.978V24.188H117.078ZM118.613 31.103C118.613 30.263 118.778 29.518 119.108 28.868C119.448 28.218 119.903 27.718 120.473 27.368C121.053 27.018 121.698 26.843 122.408 26.843C123.028 26.843 123.568 26.968 124.028 27.218C124.498 27.468 124.873 27.783 125.153 28.163V26.978H127.268V35.288H125.153V34.073C124.883 34.463 124.508 34.788 124.028 35.048C123.558 35.298 123.013 35.423 122.393 35.423C121.693 35.423 121.053 35.243 120.473 34.883C119.903 34.523 119.448 34.018 119.108 33.368C118.778 32.708 118.613 31.953 118.613 31.103ZM125.153 31.133C125.153 30.623 125.053 30.188 124.853 29.828C124.653 29.458 124.383 29.178 124.043 28.988C123.703 28.788 123.338 28.688 122.948 28.688C122.558 28.688 122.198 28.783 121.868 28.973C121.538 29.163 121.268 29.443 121.058 29.813C120.858 30.173 120.758 30.603 120.758 31.103C120.758 31.603 120.858 32.043 121.058 32.423C121.268 32.793 121.538 33.078 121.868 33.278C122.208 33.478 122.568 33.578 122.948 33.578C123.338 33.578 123.703 33.483 124.043 33.293C124.383 33.093 124.653 32.813 124.853 32.453C125.053 32.083 125.153 31.643 125.153 31.133ZM137.269 26.978L132.124 39.218H129.889L131.689 35.078L128.359 26.978H130.714L132.859 32.783L135.034 26.978H137.269Z" fill="#FAFAFF"/>
<defs>
<linearGradient id="paint0_linear" x1="27.0594" y1="11.9476" x2="9.3073" y2="29.6997" gradientUnits="userSpaceOnUse">
<stop stop-color="#00A0FF"/>
<stop offset="0.0117647" stop-color="#00A1FF"/>
<stop offset="0.258824" stop-color="#00BEFF"/>
<stop offset="0.509804" stop-color="#00D2FF"/>
<stop offset="0.760784" stop-color="#00DFFF"/>
<stop offset="1" stop-color="#00E3FF"/>
</linearGradient>
<linearGradient id="paint1_linear" x1="39.7893" y1="23.8917" x2="14.1942" y2="23.8917" gradientUnits="userSpaceOnUse">
<stop stop-color="#FFE000"/>
<stop offset="0.411765" stop-color="#FFBD00"/>
<stop offset="0.780392" stop-color="#FFA500"/>
<stop offset="1" stop-color="#FF9C00"/>
</linearGradient>
<linearGradient id="paint2_linear" x1="30.2615" y1="26.319" x2="6.18845" y2="50.3924" gradientUnits="userSpaceOnUse">
<stop stop-color="#FF3A44"/>
<stop offset="1" stop-color="#C31162"/>
</linearGradient>
<linearGradient id="paint3_linear" x1="11.7188" y1="2.92116" x2="22.4684" y2="13.6708" gradientUnits="userSpaceOnUse">
<stop stop-color="#32A071"/>
<stop offset="0.0705882" stop-color="#2DA771"/>
<stop offset="0.478431" stop-color="#15CF74"/>
<stop offset="0.8" stop-color="#06E775"/>
<stop offset="1" stop-color="#00F076"/>
</linearGradient>
</defs>
</svg>
