<svg width="109" height="36" viewBox="0 0 109 36" fill="none" xmlns="http://www.w3.org/2000/svg">
<path d="M5.88118 28.1345C-4.64233 17.6109 3.35718 3.43628 15.5988 3.43628C23.3305 3.43628 30.1201 9.24104 30.4179 16.537C30.8474 27.0606 21.3974 31.7856 18.3908 31.5708C15.3842 31.356 15.8137 27.2754 15.8137 24.4834M15.8137 24.4834C15.8137 24.4834 22.4715 24.6982 22.4715 16.537C22.4715 16.3223 21.6124 16.3223 21.6124 16.3223M15.8137 24.4834C15.8137 24.4834 9.15591 24.913 9.15591 16.7518C9.15591 16.537 10.015 16.537 10.015 16.537" stroke="#FAFAFF" stroke-width="1.90904" stroke-linecap="round" stroke-linejoin="round"/>
<path d="M10.874 29.8527C10.874 31.3946 9.62398 32.6446 8.08201 32.6446C6.54005 32.6446 5.29004 31.3946 5.29004 29.8527C5.29004 28.3107 6.54005 27.0607 8.08201 27.0607C9.62398 27.0607 10.874 28.3107 10.874 29.8527Z" stroke="#FAFAFF" stroke-width="1.90904" stroke-linecap="round" stroke-linejoin="round"/>
<path d="M42.8306 31.1007C41.9914 31.1007 41.2362 30.9523 40.5649 30.6553C39.9065 30.3455 39.3837 29.9324 38.9964 29.416C38.6091 28.8867 38.4025 28.2993 38.3767 27.6538H40.6617C40.7005 28.1057 40.9135 28.4865 41.3008 28.7963C41.701 29.0933 42.198 29.2417 42.7918 29.2417C43.4115 29.2417 43.8892 29.1255 44.2248 28.8932C44.5734 28.6479 44.7477 28.338 44.7477 27.9637C44.7477 27.5635 44.554 27.2665 44.1667 27.0729C43.7924 26.8792 43.192 26.6662 42.3658 26.4339C41.5654 26.2144 40.9135 26.0014 40.41 25.7948C39.9065 25.5883 39.4676 25.272 39.0932 24.846C38.7317 24.4199 38.551 23.8584 38.551 23.1612C38.551 22.5932 38.7188 22.0768 39.0545 21.6121C39.3901 21.1344 39.8678 20.76 40.4875 20.4889C41.12 20.2178 41.843 20.0823 42.6563 20.0823C43.8698 20.0823 44.8445 20.3921 45.5804 21.0118C46.3291 21.6185 46.7293 22.4512 46.781 23.5098H44.5734C44.5347 23.0321 44.341 22.6513 43.9925 22.3673C43.6439 22.0833 43.1727 21.9413 42.5788 21.9413C41.9979 21.9413 41.5525 22.051 41.2427 22.2705C40.9328 22.4899 40.7779 22.7804 40.7779 23.1419C40.7779 23.4259 40.8812 23.6647 41.0878 23.8584C41.2943 24.052 41.5461 24.2069 41.843 24.3231C42.1399 24.4264 42.5788 24.5619 43.1598 24.7298C43.9344 24.9363 44.5669 25.1493 45.0575 25.3688C45.561 25.5754 45.9935 25.8852 46.3549 26.2983C46.7164 26.7114 46.9036 27.2601 46.9165 27.9443C46.9165 28.5511 46.7487 29.0933 46.413 29.5709C46.0774 30.0486 45.5997 30.423 44.9801 30.6941C44.3733 30.9652 43.6568 31.1007 42.8306 31.1007Z" fill="#FAFAFF"/>
<path d="M58.1902 20.2565V30.9265H55.9826V29.6677C55.6341 30.1067 55.1758 30.4552 54.6078 30.7134C54.0526 30.9587 53.4588 31.0814 52.8262 31.0814C51.9871 31.0814 51.2319 30.9071 50.5605 30.5585C49.9021 30.21 49.3793 29.6936 48.992 29.0094C48.6176 28.3251 48.4304 27.4989 48.4304 26.5307V20.2565H50.6186V26.2015C50.6186 27.1568 50.8575 27.8927 51.3351 28.409C51.8128 28.9125 52.4647 29.1643 53.291 29.1643C54.1172 29.1643 54.7691 28.9125 55.2468 28.409C55.7374 27.8927 55.9826 27.1568 55.9826 26.2015V20.2565H58.1902Z" fill="#FAFAFF"/>
<path d="M62.5359 21.8251C62.9103 21.3345 63.4202 20.9214 64.0657 20.5857C64.7112 20.2501 65.4406 20.0823 66.2539 20.0823C67.1834 20.0823 68.029 20.3146 68.7907 20.7794C69.5653 21.2312 70.172 21.8703 70.611 22.6965C71.0499 23.5227 71.2694 24.4716 71.2694 25.5431C71.2694 26.6146 71.0499 27.5764 70.611 28.4284C70.172 29.2675 69.5653 29.9259 68.7907 30.4036C68.029 30.8684 67.1834 31.1007 66.2539 31.1007C65.4406 31.1007 64.7177 30.9394 64.0851 30.6166C63.4525 30.281 62.9361 29.8679 62.5359 29.3773V36H60.3283V20.2565H62.5359V21.8251ZM69.0231 25.5431C69.0231 24.8072 68.8681 24.1746 68.5583 23.6453C68.2614 23.1031 67.8612 22.6965 67.3577 22.4254C66.8671 22.1414 66.3378 21.9994 65.7698 21.9994C65.2147 21.9994 64.6854 22.1414 64.1819 22.4254C63.6913 22.7094 63.2911 23.1225 62.9813 23.6647C62.6844 24.2069 62.5359 24.846 62.5359 25.5818C62.5359 26.3177 62.6844 26.9632 62.9813 27.5183C63.2911 28.0605 63.6913 28.4736 64.1819 28.7576C64.6854 29.0416 65.2147 29.1836 65.7698 29.1836C66.3378 29.1836 66.8671 29.0416 67.3577 28.7576C67.8612 28.4607 68.2614 28.0347 68.5583 27.4795C68.8681 26.9244 69.0231 26.2789 69.0231 25.5431Z" fill="#FAFAFF"/>
<path d="M74.8854 21.8251C75.2598 21.3345 75.7697 20.9214 76.4152 20.5857C77.0607 20.2501 77.7901 20.0823 78.6034 20.0823C79.5329 20.0823 80.3785 20.3146 81.1402 20.7794C81.9148 21.2312 82.5215 21.8703 82.9605 22.6965C83.3994 23.5227 83.6189 24.4716 83.6189 25.5431C83.6189 26.6146 83.3994 27.5764 82.9605 28.4284C82.5215 29.2675 81.9148 29.9259 81.1402 30.4036C80.3785 30.8684 79.5329 31.1007 78.6034 31.1007C77.7901 31.1007 77.0672 30.9394 76.4346 30.6166C75.802 30.281 75.2856 29.8679 74.8854 29.3773V36H72.6778V20.2565H74.8854V21.8251ZM81.3726 25.5431C81.3726 24.8072 81.2176 24.1746 80.9078 23.6453C80.6109 23.1031 80.2107 22.6965 79.7072 22.4254C79.2166 22.1414 78.6873 21.9994 78.1193 21.9994C77.5642 21.9994 77.0349 22.1414 76.5314 22.4254C76.0408 22.7094 75.6406 23.1225 75.3308 23.6647C75.0339 24.2069 74.8854 24.846 74.8854 25.5818C74.8854 26.3177 75.0339 26.9632 75.3308 27.5183C75.6406 28.0605 76.0408 28.4736 76.5314 28.7576C77.0349 29.0416 77.5642 29.1836 78.1193 29.1836C78.6873 29.1836 79.2166 29.0416 79.7072 28.7576C80.2107 28.4607 80.6109 28.0347 80.9078 27.4795C81.2176 26.9244 81.3726 26.2789 81.3726 25.5431Z" fill="#FAFAFF"/>
<path d="M89.6555 31.1007C88.6485 31.1007 87.7384 30.8748 86.9251 30.423C86.1118 29.9582 85.4727 29.3127 85.008 28.4865C84.5432 27.6474 84.3108 26.6791 84.3108 25.5818C84.3108 24.4974 84.5497 23.5356 85.0273 22.6965C85.505 21.8573 86.1569 21.2119 86.9832 20.76C87.8094 20.3082 88.7324 20.0823 89.7523 20.0823C90.7722 20.0823 91.6952 20.3082 92.5215 20.76C93.3477 21.2119 93.9996 21.8573 94.4773 22.6965C94.9549 23.5356 95.1938 24.4974 95.1938 25.5818C95.1938 26.6662 94.9485 27.628 94.4579 28.4671C93.9673 29.3063 93.296 29.9582 92.444 30.423C91.6049 30.8748 90.6754 31.1007 89.6555 31.1007ZM89.6555 29.1836C90.2235 29.1836 90.7528 29.0481 91.2434 28.777C91.7469 28.5059 92.1535 28.0992 92.4634 27.557C92.7732 27.0148 92.9281 26.3564 92.9281 25.5818C92.9281 24.8072 92.7796 24.1553 92.4827 23.626C92.1858 23.0838 91.792 22.6771 91.3015 22.406C90.8109 22.1349 90.2816 21.9994 89.7136 21.9994C89.1455 21.9994 88.6162 22.1349 88.1257 22.406C87.648 22.6771 87.2672 23.0838 86.9832 23.626C86.6991 24.1553 86.5571 24.8072 86.5571 25.5818C86.5571 26.7308 86.8476 27.6216 87.4286 28.2541C88.0224 28.8738 88.7647 29.1836 89.6555 29.1836Z" fill="#FAFAFF"/>
<path d="M98.8091 21.8057C99.1318 21.2635 99.5578 20.8439 100.087 20.547C100.629 20.2372 101.268 20.0823 102.004 20.0823V22.3673H101.443C100.578 22.3673 99.9193 22.5867 99.4675 23.0257C99.0285 23.4646 98.8091 24.2263 98.8091 25.3107V30.9265H96.6015V20.2565H98.8091V21.8057Z" fill="#FAFAFF"/>
<path d="M105.834 22.0574V27.9637C105.834 28.3639 105.925 28.6543 106.105 28.8351C106.299 29.0029 106.622 29.0868 107.074 29.0868H108.429V30.9265H106.686C105.692 30.9265 104.931 30.6941 104.401 30.2293C103.872 29.7646 103.607 29.0093 103.607 27.9637V22.0574H102.349V20.2565H103.607V17.6036H105.834V20.2565H108.429V22.0574H105.834Z" fill="#FAFAFF"/>
<path d="M42.8306 15.085C41.9914 15.085 41.2362 14.9366 40.5649 14.6396C39.9065 14.3298 39.3837 13.9167 38.9964 13.4003C38.6091 12.871 38.4025 12.2836 38.3767 11.6381H40.6617C40.7005 12.09 40.9135 12.4708 41.3008 12.7806C41.701 13.0776 42.198 13.226 42.7918 13.226C43.4115 13.226 43.8892 13.1098 44.2248 12.8775C44.5734 12.6322 44.7477 12.3223 44.7477 11.948C44.7477 11.5477 44.554 11.2508 44.1667 11.0572C43.7924 10.8635 43.192 10.6505 42.3658 10.4181C41.5654 10.1987 40.9135 9.98567 40.41 9.77911C39.9065 9.57256 39.4676 9.25627 39.0932 8.83025C38.7317 8.40422 38.551 7.84265 38.551 7.14552C38.551 6.57749 38.7188 6.0611 39.0545 5.59635C39.3901 5.11869 39.8678 4.74431 40.4875 4.4732C41.12 4.2021 41.843 4.06654 42.6563 4.06654C43.8698 4.06654 44.8445 4.37638 45.5804 4.99605C46.3291 5.6028 46.7293 6.43548 46.781 7.49408H44.5734C44.5347 7.01642 44.341 6.63559 43.9925 6.35157C43.6439 6.06756 43.1727 5.92555 42.5788 5.92555C41.9979 5.92555 41.5525 6.03528 41.2427 6.25475C40.9328 6.47421 40.7779 6.76468 40.7779 7.12616C40.7779 7.41017 40.8812 7.649 41.0878 7.84265C41.2943 8.03629 41.5461 8.19121 41.843 8.3074C42.1399 8.41068 42.5788 8.54623 43.1598 8.71406C43.9344 8.92061 44.5669 9.13362 45.0575 9.35309C45.561 9.55965 45.9935 9.86948 46.3549 10.2826C46.7164 10.6957 46.9036 11.2444 46.9165 11.9286C46.9165 12.5353 46.7487 13.0776 46.413 13.5552C46.0774 14.0329 45.5997 14.4073 44.9801 14.6784C44.3733 14.9495 43.6568 15.085 42.8306 15.085Z" fill="#FAFAFF"/>
<path d="M58.3064 9.31436C58.3064 9.71456 58.2806 10.076 58.2289 10.3988H50.0764C50.141 11.2508 50.4573 11.935 51.0253 12.4514C51.5933 12.9678 52.2905 13.226 53.1167 13.226C54.3044 13.226 55.1435 12.729 55.6341 11.7349H58.0159C57.6932 12.7161 57.1058 13.5229 56.2537 14.1555C55.4146 14.7752 54.3689 15.085 53.1167 15.085C52.0968 15.085 51.1802 14.8591 50.3669 14.4073C49.5665 13.9425 48.9339 13.297 48.4692 12.4708C48.0173 11.6317 47.7914 10.6634 47.7914 9.5661C47.7914 8.46877 48.0109 7.50699 48.4498 6.68077C48.9016 5.84164 49.5278 5.19615 50.3282 4.74431C51.1415 4.29246 52.071 4.06654 53.1167 4.06654C54.1236 4.06654 55.0209 4.28601 55.8084 4.72494C56.5959 5.16387 57.2091 5.78354 57.648 6.58395C58.0869 7.37144 58.3064 8.28158 58.3064 9.31436ZM56.002 8.61723C55.9891 7.80392 55.6986 7.15198 55.1306 6.6614C54.5626 6.17083 53.859 5.92555 53.0199 5.92555C52.2582 5.92555 51.6062 6.17083 51.064 6.6614C50.5218 7.13907 50.1991 7.79101 50.0958 8.61723H56.002Z" fill="#FAFAFF"/>
<path d="M65.0877 4.06654C65.9268 4.06654 66.6756 4.24083 67.334 4.58939C68.0053 4.93795 68.5281 5.45434 68.9025 6.13856C69.2769 6.82278 69.4641 7.649 69.4641 8.61723V14.9107H67.2759V8.94643C67.2759 7.99111 67.037 7.26171 66.5594 6.75823C66.0817 6.24184 65.4298 5.98364 64.6035 5.98364C63.7773 5.98364 63.1189 6.24184 62.6283 6.75823C62.1507 7.26171 61.9119 7.99111 61.9119 8.94643V14.9107H59.7043V4.24083H61.9119V5.4608C62.2733 5.02187 62.7316 4.67976 63.2867 4.43447C63.8548 4.18919 64.4551 4.06654 65.0877 4.06654Z" fill="#FAFAFF"/>
<path d="M72.6285 2.82721C72.2283 2.82721 71.8927 2.69165 71.6216 2.42055C71.3505 2.14944 71.2149 1.81379 71.2149 1.41359C71.2149 1.01339 71.3505 0.677732 71.6216 0.406627C71.8927 0.135522 72.2283 -3.05176e-05 72.6285 -3.05176e-05C73.0158 -3.05176e-05 73.345 0.135522 73.6161 0.406627C73.8872 0.677732 74.0228 1.01339 74.0228 1.41359C74.0228 1.81379 73.8872 2.14944 73.6161 2.42055C73.345 2.69165 73.0158 2.82721 72.6285 2.82721ZM73.7129 4.24083V14.9107H71.5054V4.24083H73.7129Z" fill="#FAFAFF"/>
<path d="M80.4648 15.085C79.4579 15.085 78.5477 14.8591 77.7344 14.4073C76.9211 13.9425 76.2821 13.297 75.8173 12.4708C75.3526 11.6317 75.1202 10.6634 75.1202 9.5661C75.1202 8.48168 75.359 7.5199 75.8367 6.68077C76.3144 5.84164 76.9663 5.19615 77.7925 4.74431C78.6187 4.29246 79.5418 4.06654 80.5617 4.06654C81.5815 4.06654 82.5046 4.29246 83.3308 4.74431C84.157 5.19615 84.809 5.84164 85.2866 6.68077C85.7643 7.5199 86.0031 8.48168 86.0031 9.5661C86.0031 10.6505 85.7578 11.6123 85.2673 12.4514C84.7767 13.2906 84.1054 13.9425 83.2534 14.4073C82.4142 14.8591 81.4847 15.085 80.4648 15.085ZM80.4648 13.1679C81.0329 13.1679 81.5622 13.0324 82.0527 12.7613C82.5562 12.4902 82.9629 12.0835 83.2727 11.5413C83.5826 10.9991 83.7375 10.3407 83.7375 9.5661C83.7375 8.79152 83.589 8.13957 83.2921 7.61027C82.9952 7.06806 82.6014 6.66141 82.1108 6.3903C81.6203 6.11919 81.091 5.98364 80.5229 5.98364C79.9549 5.98364 79.4256 6.11919 78.935 6.3903C78.4574 6.66141 78.0765 7.06806 77.7925 7.61027C77.5085 8.13957 77.3665 8.79152 77.3665 9.5661C77.3665 10.7151 77.657 11.6058 78.2379 12.2384C78.8318 12.8581 79.5741 13.1679 80.4648 13.1679Z" fill="#FAFAFF"/>
<path d="M89.6184 5.79C89.9412 5.24779 90.3672 4.82822 90.8965 4.53129C91.4387 4.22146 92.0777 4.06654 92.8136 4.06654V6.35157H92.252C91.3871 6.35157 90.7287 6.57104 90.2768 7.00997C89.8379 7.4489 89.6184 8.21058 89.6184 9.295V14.9107H87.4109V4.24083H89.6184V5.79Z" fill="#FAFAFF"/>
</svg>
