<svg width="116" height="42" viewBox="0 0 116 42" fill="none" xmlns="http://www.w3.org/2000/svg">
<path fill-rule="evenodd" clip-rule="evenodd" d="M25.051 36.4962C23.6051 36.4962 22.3535 37.3111 21.6479 38.6002C21.3538 39.1177 20.7936 39.4677 20.1533 39.4677H19.5101C18.8726 39.4677 18.3129 39.1177 17.9427 38.505C17.3136 37.3106 16.0601 36.4957 14.6134 36.4957H6.58753C6.10527 36.4957 5.69994 36.1017 5.69994 35.6194L5.70463 24.8281C5.70463 24.3468 6.05929 23.9278 6.54437 23.9278H14.6134C16.0601 23.9278 17.3136 24.7418 18.0164 26.0309C18.3124 26.5507 18.8726 26.8993 19.5101 26.8993H20.1533C20.7936 26.8993 21.3533 26.5502 21.7234 25.9357C22.3535 24.7413 23.6051 23.9274 25.051 23.9274L32.4979 23.9311C32.9801 23.9311 33.3587 24.3224 33.3587 24.8065L33.3503 35.6217C33.3503 36.105 32.9431 36.499 32.4608 36.499L25.0514 36.4953L25.051 36.4962ZM26.3021 10.0482C27.2282 10.0482 28.0679 9.67715 28.6797 9.07339L32.8192 3.93222C33.1031 3.56677 33.5412 3.33221 34.0413 3.33221C34.1229 3.33221 34.2013 3.33972 34.2792 3.35238C36.9931 3.75677 38.8958 6.04799 38.8958 8.82053L38.8977 36.4648C38.8977 39.5211 36.4198 42 33.3615 42H5.69197C2.63654 42 0.156738 39.5211 0.156738 36.4648L0.157677 8.82053C0.157677 6.04799 2.06139 3.75677 4.77342 3.35238C4.85223 3.33972 4.93339 3.33221 5.01502 3.33221C5.51041 3.33221 5.95046 3.56724 6.23428 3.93222L10.3748 9.07339C10.9865 9.67715 11.853 10.0482 12.78 10.0482C14.6457 10.0482 16.1296 8.53717 16.1296 6.67192L16.1286 4.92255L16.1324 0.600952C16.1324 0.268341 16.3942 0 16.7249 0C20.1941 0.285698 22.8888 3.12626 22.8888 6.67239C22.8888 8.53811 24.4359 10.0487 26.3017 10.0487L26.3021 10.0482Z" fill="#0E0C34"/>
<path fill-rule="evenodd" clip-rule="evenodd" d="M51.1667 20.6504H49.7354V24.4161C49.7354 25.42 49.3348 26.1856 48.1423 26.1856C47.364 26.1856 46.8991 25.7704 46.8991 24.6295V20.6504H45.4678V24.767C45.4678 26.4619 46.1973 27.3139 47.8913 27.3139C48.6072 27.3139 49.385 26.8884 49.7359 26.2353H49.7617V27.1394H51.1672V20.6504H51.1667Z" fill="#0E0C34"/>
<path fill-rule="evenodd" clip-rule="evenodd" d="M52.4214 27.1399H53.8527V23.3118C53.8527 22.3581 54.4673 21.6046 55.421 21.6046C56.2635 21.6046 56.6632 22.0447 56.6895 23.0589V27.1399H58.1208V22.6841C58.1208 21.227 57.2285 20.4736 55.823 20.4736C54.9687 20.4736 54.2299 20.9136 53.8011 21.6295L53.7772 21.6046V20.6509H52.4219V27.1399H52.4214Z" fill="#0E0C34"/>
<path fill-rule="evenodd" clip-rule="evenodd" d="M59.4133 27.1399H60.8428V20.6509H59.4133V27.1399ZM59.4133 19.532H60.8428V18.1777H59.4133V19.532Z" fill="#0E0C34"/>
<path fill-rule="evenodd" clip-rule="evenodd" d="M63.8661 27.1398H65.4724L67.7955 20.6504H66.3144L64.7316 25.6335H64.7096L63.0634 20.6504H61.5068L63.8661 27.1398Z" fill="#0E0C34"/>
<path fill-rule="evenodd" clip-rule="evenodd" d="M74.2951 24.2664C74.532 22.3204 73.2771 20.473 71.2312 20.473C69.2975 20.473 68.0928 22.0559 68.0928 23.9009C68.0928 25.8947 69.2356 27.3138 71.2688 27.3138C72.6874 27.3138 73.8926 26.5238 74.2069 25.1052H72.8493C72.5992 25.8225 72.0968 26.1856 71.2683 26.1856C70.0758 26.1856 69.5236 25.2806 69.5236 24.2664H74.2946H74.2951ZM69.5241 23.3239C69.5635 22.3556 70.239 21.6041 71.2312 21.6041C72.1958 21.6041 72.8122 22.419 72.8619 23.3239H69.5241Z" fill="#0E0C34"/>
<path fill-rule="evenodd" clip-rule="evenodd" d="M75.134 27.1398H76.5653V24.0529C76.5653 22.6216 77.3427 21.8288 78.3218 21.8288C78.523 21.8288 78.736 21.8673 78.9363 21.8931V20.5134C78.8106 20.4988 78.7224 20.473 78.3987 20.473C77.5186 20.473 76.6643 21.2161 76.5015 21.9053H76.4757V20.6504H75.1345V27.1393L75.134 27.1398Z" fill="#0E0C34"/>
<path fill-rule="evenodd" clip-rule="evenodd" d="M78.9465 25.0553C78.9714 26.587 80.1869 27.3137 81.8194 27.3137C83.1616 27.3137 84.7182 26.7498 84.7182 25.2054C84.7182 23.9247 83.6636 23.5489 82.6245 23.3092C81.5689 23.0723 80.5143 22.971 80.5143 22.2682C80.5143 21.7043 81.2804 21.6039 81.6932 21.6039C82.3209 21.6039 82.8858 21.793 83.0124 22.4695H84.5061C84.3297 21.026 83.1255 20.4724 81.7932 20.4724C80.6161 20.4724 79.083 20.9125 79.083 22.3302C79.083 23.6503 80.1137 24.026 81.1683 24.2512C82.2093 24.491 83.2512 24.5773 83.2887 25.3316C83.3253 26.0728 82.3838 26.185 81.8438 26.185C81.0777 26.185 80.4519 25.8838 80.375 25.0548H78.9456L78.9465 25.0553Z" fill="#0E0C34"/>
<path fill-rule="evenodd" clip-rule="evenodd" d="M85.5959 27.1399H87.0282V20.6509H85.5959V27.1399ZM85.5959 19.532H87.0282V18.1777H85.5959V19.532Z" fill="#0E0C34"/>
<path fill-rule="evenodd" clip-rule="evenodd" d="M89.4484 23.9639C89.4484 22.7962 89.9241 21.6046 91.2691 21.6046C92.3725 21.6046 93.0626 22.4599 93.0626 23.8893C93.0626 25.0185 92.524 26.1861 91.2433 26.1861C90.0001 26.1861 89.4489 25.0818 89.4489 23.9639H89.4484ZM94.4427 18.1777H93.0124V21.4916H92.9866C92.5484 20.7757 91.6434 20.4736 90.8286 20.4736C89.4099 20.4736 88.0171 21.5043 88.0171 23.8508C88.0171 25.7977 89.0074 27.3144 91.0552 27.3144C91.87 27.3144 92.6868 27.0029 93.0626 26.2598H93.0884V27.1399H94.4427V18.1777Z" fill="#0E0C34"/>
<path fill-rule="evenodd" clip-rule="evenodd" d="M99.7523 24.9546C99.7523 25.8577 98.7728 26.1856 98.1456 26.1856C97.6431 26.1856 96.8264 25.9975 96.8264 25.3562C96.8264 24.6027 97.3804 24.3785 97.995 24.2776C98.6208 24.1646 99.3123 24.1777 99.7523 23.8883V24.9541V24.9546ZM101.181 22.3575C101.181 20.9895 99.8541 20.473 98.5856 20.473C97.1543 20.473 95.7375 20.9647 95.6357 22.6338H97.0642C97.1294 21.9301 97.6943 21.6041 98.4984 21.6041C99.0754 21.6041 99.8396 21.7411 99.8396 22.4842C99.8396 23.3239 98.9239 23.2108 97.8937 23.3976C96.6894 23.5355 95.3965 23.7991 95.3965 25.4176C95.3965 26.688 96.4511 27.3138 97.6187 27.3138C98.3839 27.3138 99.302 27.076 99.8659 26.5238C99.978 27.1135 100.393 27.3138 100.97 27.3138C101.208 27.3138 101.661 27.2266 101.874 27.151V26.1607C101.724 26.1856 101.611 26.1856 101.523 26.1856C101.26 26.1856 101.181 26.0486 101.181 25.6958V22.358V22.3575Z" fill="#0E0C34"/>
<path fill-rule="evenodd" clip-rule="evenodd" d="M103.591 23.9639C103.591 22.7962 104.067 21.6046 105.411 21.6046C106.515 21.6046 107.205 22.4599 107.205 23.8893C107.205 25.0185 106.668 26.1861 105.387 26.1861C104.143 26.1861 103.591 25.0818 103.591 23.9639H103.591ZM108.587 18.1777H107.155V21.4916H107.131C106.693 20.7757 105.788 20.4736 104.972 20.4736C103.553 20.4736 102.162 21.5043 102.162 23.8508C102.162 25.7977 103.152 27.3144 105.198 27.3144C106.013 27.3144 106.83 27.0029 107.205 26.2598H107.231V27.1399H108.588V18.1777H108.587Z" fill="#0E0C34"/>
<path fill-rule="evenodd" clip-rule="evenodd" d="M115.777 24.2664C116.015 22.3204 114.76 20.473 112.715 20.473C110.781 20.473 109.576 22.0559 109.576 23.9009C109.576 25.8947 110.719 27.3138 112.752 27.3138C114.171 27.3138 115.376 26.5238 115.69 25.1052H114.335C114.084 25.8225 113.582 26.1856 112.752 26.1856C111.559 26.1856 111.007 25.2806 111.007 24.2664H115.777ZM111.007 23.3239C111.047 22.3556 111.722 21.6041 112.715 21.6041C113.68 21.6041 114.297 22.419 114.345 23.3239H111.007Z" fill="#0E0C34"/>
<path fill-rule="evenodd" clip-rule="evenodd" d="M46.8969 37.3015C46.8969 36.1338 47.3736 34.9422 48.7153 34.9422C49.8205 34.9422 50.5115 35.7974 50.5115 37.2269C50.5115 38.3561 49.9697 39.5237 48.6932 39.5237C47.45 39.5237 46.8969 38.4194 46.8969 37.3015ZM51.8912 31.5153H50.4618V34.8292H50.4351C49.9969 34.1133 49.0929 33.8112 48.278 33.8112C46.8594 33.8112 45.4666 34.8418 45.4666 37.1884C45.4666 39.1353 46.4569 40.652 48.5046 40.652C49.3195 40.652 50.1344 40.3405 50.512 39.5974H50.5359V40.4775H51.8912V31.5153Z" fill="#0E0C34"/>
<path fill-rule="evenodd" clip-rule="evenodd" d="M59.0812 37.6046C59.3209 35.6587 58.066 33.8113 56.0201 33.8113C54.0883 33.8113 52.8835 35.3941 52.8835 37.2392C52.8835 39.233 54.0263 40.6521 56.0577 40.6521C57.4763 40.6521 58.6815 39.8621 58.9939 38.4434H57.6396C57.3867 39.1607 56.8861 39.5238 56.0577 39.5238C54.8661 39.5238 54.3139 38.6189 54.3139 37.6046H59.0812ZM54.3139 36.6622C54.3496 35.6939 55.0298 34.9423 56.0201 34.9423C56.9865 34.9423 57.602 35.7572 57.6527 36.6622H54.3139Z" fill="#0E0C34"/>
<path fill-rule="evenodd" clip-rule="evenodd" d="M67.0569 38.2929C67.0569 39.1959 66.0783 39.5238 65.4501 39.5238C64.9467 39.5238 64.1318 39.3357 64.1318 38.6944C64.1318 37.941 64.684 37.7168 65.2995 37.6159C65.9286 37.5028 66.6168 37.516 67.0569 37.2265V38.2924V38.2929ZM68.4891 35.6958C68.4891 34.3278 67.1577 33.8113 65.8892 33.8113C64.4598 33.8113 63.0411 34.3029 62.9393 35.9721H64.3725C64.4349 35.2684 64.9974 34.9423 65.801 34.9423C66.3808 34.9423 67.1441 35.0793 67.1441 35.8224C67.1441 36.6622 66.2298 36.5491 65.2 36.7358C63.9949 36.8737 62.7029 37.1374 62.7029 38.7559C62.7029 40.0263 63.7575 40.6521 64.9251 40.6521C65.6884 40.6521 66.6055 40.4142 67.1694 39.8621C67.2834 40.4518 67.6967 40.6521 68.2747 40.6521C68.5144 40.6521 68.9657 40.5648 69.1797 40.4893V39.499C69.0272 39.5238 68.9151 39.5238 68.8278 39.5238C68.5632 39.5238 68.4896 39.3869 68.4896 39.0341V35.6962L68.4891 35.6958Z" fill="#0E0C34"/>
<path fill-rule="evenodd" clip-rule="evenodd" d="M71.4984 40.4775H73.1061L75.4269 33.9885H73.9468L72.3649 38.9716H72.341L70.6948 33.9885H69.1392L71.4984 40.4775Z" fill="#0E0C34"/>
<path fill-rule="evenodd" clip-rule="evenodd" d="M81.9258 37.6046C82.1637 35.6587 80.9088 33.8113 78.8638 33.8113C76.9292 33.8113 75.7263 35.3941 75.7263 37.2392C75.7263 39.233 76.8682 40.6521 78.9004 40.6521C80.3191 40.6521 81.5243 39.8621 81.8386 38.4434H80.4819C80.2309 39.1607 79.7303 39.5238 78.9 39.5238C77.7074 39.5238 77.1553 38.6189 77.1553 37.6046H81.9254H81.9258ZM77.1557 36.6622C77.1942 35.6939 77.8716 34.9423 78.8638 34.9423C79.8293 34.9423 80.4439 35.7572 80.4936 36.6622H77.1557Z" fill="#0E0C34"/>
<path fill-rule="evenodd" clip-rule="evenodd" d="M82.8049 40.4775H84.2344V33.9885H82.8049V40.4775ZM82.8049 32.8696H84.2344V31.5153H82.8049V32.8696Z" fill="#0E0C34"/>
<path fill-rule="evenodd" clip-rule="evenodd" d="M85.5361 40.4774H86.9703V37.3906C86.9703 35.9593 87.7476 35.1664 88.7267 35.1664C88.927 35.1664 89.1418 35.2049 89.3412 35.2307V33.851C89.2146 33.8365 89.1273 33.8107 88.8027 33.8107C87.9226 33.8107 87.0692 34.5538 86.9065 35.2429H86.8835V33.988H85.5366V40.477L85.5361 40.4774Z" fill="#0E0C34"/>
<path fill-rule="evenodd" clip-rule="evenodd" d="M92.4513 39.5238C91.1715 39.5238 90.6057 38.3562 90.6057 37.227C90.6057 36.11 91.1715 34.9423 92.4513 34.9423C93.7301 34.9423 94.2968 36.11 94.2968 37.227C94.2968 38.3562 93.7301 39.5238 92.4513 39.5238ZM92.4513 40.6521C94.5342 40.6521 95.7281 39.2227 95.7281 37.227C95.7281 35.2435 94.5347 33.8113 92.4513 33.8113C90.366 33.8113 89.1768 35.2435 89.1768 37.227C89.1768 39.2227 90.3665 40.6521 92.4513 40.6521Z" fill="#0E0C34"/>
</svg>
