<svg width="375" height="786" viewBox="0 0 375 786" fill="none" xmlns="http://www.w3.org/2000/svg">
<g clip-path="url(#clip0)">
<path d="M-873.935 -96.5115L1373.99 -96.5113C1373.99 -96.5113 1373.99 331.459 1373.99 653.201C1312.25 716.811 1229.81 728.173 1100.38 743.508C549.558 808.772 401.294 568.95 -92.3561 781.062C-325.504 889.181 -692.285 897.426 -873.936 813.367C-873.936 676.221 -873.935 666.833 -873.935 666.833L-873.935 -96.5115Z" fill="url(#paint0_linear)"/>
<mask id="mask0" mask-type="alpha" maskUnits="userSpaceOnUse" x="-717" y="0" width="1979" height="852">
<path d="M-716.072 0.705155L1261.56 0.705196C1261.56 0.705196 1261.57 377.216 1261.57 660.272C1207.24 716.234 1134.72 726.229 1020.85 739.72C536.26 797.137 405.823 586.151 -28.4703 772.759C-233.585 867.878 -556.263 875.131 -716.072 801.179C-716.072 680.524 -716.072 672.264 -716.072 672.264L-716.072 0.705155Z" fill="url(#paint1_linear)"/>
</mask>
<g mask="url(#mask0)">
<circle opacity="0.5" cx="-0.205063" cy="488.08" r="22.0796" transform="rotate(90 -0.205063 488.08)" fill="url(#paint2_linear)"/>
<path opacity="0.3" d="M129.695 677.572C40.8766 588.705 108.393 469.006 211.712 469.006C276.969 469.006 334.272 518.025 336.786 579.637C340.411 668.504 260.653 708.404 235.277 706.59C209.901 704.777 213.526 670.318 213.526 646.741M213.526 646.741C213.526 646.741 269.718 648.554 269.718 579.637C269.718 577.823 262.467 577.823 262.467 577.823M213.526 646.741C213.526 646.741 157.334 650.368 157.334 581.451C157.334 579.637 164.585 579.637 164.585 579.637M171.835 692.081C171.835 705.103 161.285 715.658 148.271 715.658C135.256 715.658 124.706 705.103 124.706 692.081C124.706 679.06 135.256 668.504 148.271 668.504C161.285 668.504 171.835 679.06 171.835 692.081Z" stroke="url(#paint3_linear)" stroke-width="12.2919" stroke-linecap="round" stroke-linejoin="round"/>
</g>
</g>
<defs>
<linearGradient id="paint0_linear" x1="844.917" y1="-494.561" x2="-305.679" y2="1345.89" gradientUnits="userSpaceOnUse">
<stop stop-color="#2D5DD3"/>
<stop offset="1" stop-color="#00A39A"/>
</linearGradient>
<linearGradient id="paint1_linear" x1="784.635" y1="-370.053" x2="-194.948" y2="1225.73" gradientUnits="userSpaceOnUse">
<stop stop-color="#2D5DD3"/>
<stop offset="1" stop-color="#00A39A"/>
</linearGradient>
<linearGradient id="paint2_linear" x1="21.0728" y1="480.89" x2="-12.6678" y2="465.454" gradientUnits="userSpaceOnUse">
<stop stop-color="#2D5DD3"/>
<stop offset="1" stop-color="#00A39A"/>
</linearGradient>
<linearGradient id="paint3_linear" x1="299.688" y1="689.403" x2="121.785" y2="445.774" gradientUnits="userSpaceOnUse">
<stop stop-color="#F3F2F8" stop-opacity="0"/>
<stop offset="1" stop-color="#F3F2F8" stop-opacity="0.5"/>
</linearGradient>
<clipPath id="clip0">
<rect width="553" height="786" fill="white" transform="translate(-89)"/>
</clipPath>
</defs>
</svg>
