<svg width="1980" height="852" viewBox="0 0 1980 852" fill="none" xmlns="http://www.w3.org/2000/svg">
<g clip-path="url(#clip0)">
<path d="M3.58831e-05 0.000405506L1980 0.000502302C1980 0.000502302 1980 376.758 1980 660C1925.61 715.998 1853 726 1739 739.5C1253.83 796.954 1123.24 585.83 688.424 772.561C483.064 867.741 160 875 1.46812e-05 801C-5.80385e-05 680.265 0.000192279 672 0.000192279 672L3.58831e-05 0.000405506Z" fill="url(#paint0_linear)"/>
<mask id="mask0" mask-type="alpha" maskUnits="userSpaceOnUse" x="0" y="0" width="1981" height="851">
<path d="M3.58831e-05 0.000405506L1980 0.000502302C1980 0.000502302 1980 376.758 1980 660C1925.61 715.998 1853 726 1739 739.5C1253.83 796.954 1123.24 585.83 688.424 772.561C483.064 867.741 160 875 1.46812e-05 801C-5.80385e-05 680.265 0.000192279 672 0.000192279 672L3.58831e-05 0.000405506Z" fill="url(#paint1_linear)"/>
</mask>
<g mask="url(#mask0)">
<circle opacity="0.5" cx="366.302" cy="823.302" r="97.1076" transform="rotate(1.88839 366.302 823.302)" fill="url(#paint2_linear)"/>
<path opacity="0.3" d="M1156.2 733.678C950.96 528.441 1106.97 252 1345.71 252C1496.5 252 1628.92 365.208 1634.72 507.499C1643.1 712.736 1458.8 804.884 1400.16 800.695C1341.53 796.506 1349.9 716.924 1349.9 662.473M1349.9 662.473C1349.9 662.473 1479.75 666.662 1479.75 507.499C1479.75 503.31 1462.99 503.31 1462.99 503.31M1349.9 662.473C1349.9 662.473 1220.06 670.85 1220.06 511.687C1220.06 507.499 1236.82 507.499 1236.82 507.499M1253.57 767.186C1253.57 797.259 1229.19 821.637 1199.12 821.637C1169.05 821.637 1144.67 797.259 1144.67 767.186C1144.67 737.114 1169.05 712.736 1199.12 712.736C1229.19 712.736 1253.57 737.114 1253.57 767.186Z" stroke="url(#paint3_linear)" stroke-width="41.8851" stroke-linecap="round" stroke-linejoin="round"/>
</g>
</g>
<defs>
<linearGradient id="paint0_linear" x1="1513.98" y1="-350.417" x2="501.311" y2="1270.29" gradientUnits="userSpaceOnUse">
<stop stop-color="#2D5DD3"/>
<stop offset="1" stop-color="#00A39A"/>
</linearGradient>
<linearGradient id="paint1_linear" x1="1502.5" y1="-371.001" x2="522.514" y2="1226.29" gradientUnits="userSpaceOnUse">
<stop stop-color="#2D5DD3"/>
<stop offset="1" stop-color="#00A39A"/>
</linearGradient>
<linearGradient id="paint2_linear" x1="459.884" y1="791.684" x2="311.49" y2="723.793" gradientUnits="userSpaceOnUse">
<stop stop-color="#2D5DD3"/>
<stop offset="1" stop-color="#00A39A"/>
</linearGradient>
<linearGradient id="paint3_linear" x1="1549" y1="761" x2="1138.21" y2="198.134" gradientUnits="userSpaceOnUse">
<stop stop-color="#F3F2F8" stop-opacity="0"/>
<stop offset="1" stop-color="#F3F2F8" stop-opacity="0.5"/>
</linearGradient>
<clipPath id="clip0">
<rect width="1980" height="852" fill="white"/>
</clipPath>
</defs>
</svg>
