<svg width="150" height="49" viewBox="0 0 150 49" fill="none" xmlns="http://www.w3.org/2000/svg">
<path d="M0 8.28796C0 3.86969 3.58172 0.287964 8 0.287964H142C146.418 0.287964 150 3.86969 150 8.28796V40.288C150 44.7062 146.418 48.288 142 48.288H8C3.58172 48.288 0 44.7062 0 40.288V8.28796Z" fill="#0E0C34"/>
<path d="M32.7225 25.1844C32.7354 24.1828 33.0015 23.2008 33.4959 22.3296C33.9903 21.4585 34.6971 20.7266 35.5504 20.202C35.0083 19.4278 34.2932 18.7906 33.4618 18.3412C32.6304 17.8917 31.7057 17.6423 30.761 17.6128C28.7459 17.4012 26.7924 18.8185 25.7656 18.8185C24.7188 18.8185 23.1378 17.6338 21.4354 17.6688C20.3342 17.7044 19.261 18.0246 18.3203 18.5982C17.3797 19.1719 16.6036 19.9795 16.0679 20.9422C13.7471 24.9603 15.4782 30.8655 17.7013 34.1135C18.8136 35.7039 20.1135 37.4804 21.8145 37.4174C23.4789 37.3484 24.1006 36.356 26.1097 36.356C28.1002 36.356 28.6835 37.4174 30.4189 37.3774C32.205 37.3484 33.3303 35.7799 34.4035 34.1744C35.2027 33.0412 35.8176 31.7887 36.2256 30.4634C35.188 30.0245 34.3025 29.2899 33.6795 28.3512C33.0566 27.4124 32.7238 26.3111 32.7225 25.1844Z" fill="white"/>
<path d="M29.4447 15.4767C30.4185 14.3076 30.8983 12.805 30.7821 11.288C29.2943 11.4442 27.92 12.1553 26.933 13.2795C26.4505 13.8287 26.0809 14.4676 25.8454 15.1597C25.6099 15.8519 25.5131 16.5836 25.5606 17.3131C26.3047 17.3208 27.0409 17.1595 27.7137 16.8414C28.3865 16.5233 28.9784 16.0567 29.4447 15.4767Z" fill="white"/>
<path d="M49.47 13.718C49.8433 13.7846 50.16 13.9813 50.42 14.308C50.68 14.6346 50.81 15.0046 50.81 15.418C50.81 15.7713 50.7167 16.0913 50.53 16.378C50.35 16.658 50.0867 16.8813 49.74 17.048C49.3933 17.208 48.99 17.288 48.53 17.288H45.75V10.338H48.4C48.8733 10.338 49.28 10.418 49.62 10.578C49.96 10.738 50.2167 10.9546 50.39 11.228C50.5633 11.4946 50.65 11.7946 50.65 12.128C50.65 12.528 50.5433 12.8613 50.33 13.128C50.1167 13.3946 49.83 13.5913 49.47 13.718ZM46.89 13.258H48.3C48.6733 13.258 48.9633 13.1746 49.17 13.008C49.3833 12.8346 49.49 12.588 49.49 12.268C49.49 11.9546 49.3833 11.7113 49.17 11.538C48.9633 11.358 48.6733 11.268 48.3 11.268H46.89V13.258ZM48.43 16.358C48.8167 16.358 49.12 16.2646 49.34 16.078C49.56 15.8913 49.67 15.6313 49.67 15.298C49.67 14.958 49.5533 14.688 49.32 14.488C49.0867 14.288 48.7767 14.188 48.39 14.188H46.89V16.358H48.43ZM51.6688 14.508C51.6688 13.9546 51.7822 13.4646 52.0088 13.038C52.2422 12.6113 52.5555 12.2813 52.9488 12.048C53.3488 11.808 53.7888 11.688 54.2688 11.688C54.7022 11.688 55.0788 11.7746 55.3988 11.948C55.7255 12.1146 55.9855 12.3246 56.1788 12.578V11.778H57.3288V17.288H56.1788V16.468C55.9855 16.728 55.7222 16.9446 55.3888 17.118C55.0555 17.2913 54.6755 17.378 54.2488 17.378C53.7755 17.378 53.3422 17.258 52.9488 17.018C52.5555 16.7713 52.2422 16.4313 52.0088 15.998C51.7822 15.558 51.6688 15.0613 51.6688 14.508ZM56.1788 14.528C56.1788 14.148 56.0988 13.818 55.9388 13.538C55.7855 13.258 55.5822 13.0446 55.3288 12.898C55.0755 12.7513 54.8022 12.678 54.5088 12.678C54.2155 12.678 53.9422 12.7513 53.6888 12.898C53.4355 13.038 53.2288 13.248 53.0688 13.528C52.9155 13.8013 52.8388 14.128 52.8388 14.508C52.8388 14.888 52.9155 15.2213 53.0688 15.508C53.2288 15.7946 53.4355 16.0146 53.6888 16.168C53.9488 16.3146 54.2222 16.388 54.5088 16.388C54.8022 16.388 55.0755 16.3146 55.3288 16.168C55.5822 16.0213 55.7855 15.808 55.9388 15.528C56.0988 15.2413 56.1788 14.908 56.1788 14.528ZM59.4062 11.048C59.1995 11.048 59.0262 10.978 58.8862 10.838C58.7462 10.698 58.6762 10.5246 58.6762 10.318C58.6762 10.1113 58.7462 9.93796 58.8862 9.79796C59.0262 9.65796 59.1995 9.58796 59.4062 9.58796C59.6062 9.58796 59.7762 9.65796 59.9162 9.79796C60.0562 9.93796 60.1262 10.1113 60.1262 10.318C60.1262 10.5246 60.0562 10.698 59.9162 10.838C59.7762 10.978 59.6062 11.048 59.4062 11.048ZM59.9662 11.778V17.288H58.8262V11.778H59.9662ZM63.8229 14.498L65.6029 17.288H64.3129L63.1229 15.418L62.0029 17.288H60.8129L62.5929 14.578L60.8129 11.778H62.1029L63.2929 13.648L64.4129 11.778H65.6029L63.8229 14.498ZM66.0731 14.508C66.0731 13.9546 66.1865 13.4646 66.4131 13.038C66.6465 12.6113 66.9598 12.2813 67.3531 12.048C67.7531 11.808 68.1931 11.688 68.6731 11.688C69.1065 11.688 69.4831 11.7746 69.8031 11.948C70.1298 12.1146 70.3898 12.3246 70.5831 12.578V11.778H71.7331V17.288H70.5831V16.468C70.3898 16.728 70.1265 16.9446 69.7931 17.118C69.4598 17.2913 69.0798 17.378 68.6531 17.378C68.1798 17.378 67.7465 17.258 67.3531 17.018C66.9598 16.7713 66.6465 16.4313 66.4131 15.998C66.1865 15.558 66.0731 15.0613 66.0731 14.508ZM70.5831 14.528C70.5831 14.148 70.5031 13.818 70.3431 13.538C70.1898 13.258 69.9865 13.0446 69.7331 12.898C69.4798 12.7513 69.2065 12.678 68.9131 12.678C68.6198 12.678 68.3465 12.7513 68.0931 12.898C67.8398 13.038 67.6331 13.248 67.4731 13.528C67.3198 13.8013 67.2431 14.128 67.2431 14.508C67.2431 14.888 67.3198 15.2213 67.4731 15.508C67.6331 15.7946 67.8398 16.0146 68.0931 16.168C68.3531 16.3146 68.6265 16.388 68.9131 16.388C69.2065 16.388 69.4798 16.3146 69.7331 16.168C69.9865 16.0213 70.1898 15.808 70.3431 15.528C70.5031 15.2413 70.5831 14.908 70.5831 14.528ZM74.3705 12.578C74.5371 12.298 74.7571 12.0813 75.0305 11.928C75.3105 11.768 75.6405 11.688 76.0205 11.688V12.868H75.7305C75.2838 12.868 74.9438 12.9813 74.7105 13.208C74.4838 13.4346 74.3705 13.828 74.3705 14.388V17.288H73.2305V11.778H74.3705V12.578ZM82.446 11.688C82.8793 11.688 83.266 11.778 83.606 11.958C83.9527 12.138 84.2227 12.4046 84.416 12.758C84.6093 13.1113 84.706 13.538 84.706 14.038V17.288H83.576V14.208C83.576 13.7146 83.4527 13.338 83.206 13.078C82.9593 12.8113 82.6227 12.678 82.196 12.678C81.7693 12.678 81.4293 12.8113 81.176 13.078C80.9293 13.338 80.806 13.7146 80.806 14.208V17.288H79.666V11.778H80.806V12.408C80.9927 12.1813 81.2293 12.0046 81.516 11.878C81.8093 11.7513 82.1193 11.688 82.446 11.688ZM85.7802 14.508C85.7802 13.9546 85.8935 13.4646 86.1202 13.038C86.3535 12.6113 86.6668 12.2813 87.0602 12.048C87.4602 11.808 87.9002 11.688 88.3802 11.688C88.8135 11.688 89.1902 11.7746 89.5102 11.948C89.8368 12.1146 90.0968 12.3246 90.2902 12.578V11.778H91.4402V17.288H90.2902V16.468C90.0968 16.728 89.8335 16.9446 89.5002 17.118C89.1668 17.2913 88.7868 17.378 88.3602 17.378C87.8868 17.378 87.4535 17.258 87.0602 17.018C86.6668 16.7713 86.3535 16.4313 86.1202 15.998C85.8935 15.558 85.7802 15.0613 85.7802 14.508ZM90.2902 14.528C90.2902 14.148 90.2102 13.818 90.0502 13.538C89.8968 13.258 89.6935 13.0446 89.4402 12.898C89.1868 12.7513 88.9135 12.678 88.6202 12.678C88.3268 12.678 88.0535 12.7513 87.8002 12.898C87.5468 13.038 87.3402 13.248 87.1802 13.528C87.0268 13.8013 86.9502 14.128 86.9502 14.508C86.9502 14.888 87.0268 15.2213 87.1802 15.508C87.3402 15.7946 87.5468 16.0146 87.8002 16.168C88.0602 16.3146 88.3335 16.388 88.6202 16.388C88.9135 16.388 89.1868 16.3146 89.4402 16.168C89.6935 16.0213 89.8968 15.808 90.0502 15.528C90.2102 15.2413 90.2902 14.908 90.2902 14.528Z" fill="#FAFAFF"/>
<path d="M52.946 32.894H47.942L47.114 35.288H44.468L48.986 22.706H51.92L56.438 35.288H53.774L52.946 32.894ZM52.262 30.878L50.444 25.622L48.626 30.878H52.262ZM60.6468 26.756C60.9708 26.3 61.4148 25.922 61.9788 25.622C62.5548 25.31 63.2088 25.154 63.9408 25.154C64.7928 25.154 65.5608 25.364 66.2448 25.784C66.9408 26.204 67.4868 26.804 67.8828 27.584C68.2908 28.352 68.4948 29.246 68.4948 30.266C68.4948 31.286 68.2908 32.192 67.8828 32.984C67.4868 33.764 66.9408 34.37 66.2448 34.802C65.5608 35.234 64.7928 35.45 63.9408 35.45C63.2088 35.45 62.5608 35.3 61.9968 35C61.4448 34.7 60.9948 34.322 60.6468 33.866V40.04H58.1268V25.316H60.6468V26.756ZM65.9208 30.266C65.9208 29.666 65.7948 29.15 65.5428 28.718C65.3028 28.274 64.9788 27.938 64.5708 27.71C64.1748 27.482 63.7428 27.368 63.2748 27.368C62.8188 27.368 62.3868 27.488 61.9788 27.728C61.5828 27.956 61.2588 28.292 61.0068 28.736C60.7668 29.18 60.6468 29.702 60.6468 30.302C60.6468 30.902 60.7668 31.424 61.0068 31.868C61.2588 32.312 61.5828 32.654 61.9788 32.894C62.3868 33.122 62.8188 33.236 63.2748 33.236C63.7428 33.236 64.1748 33.116 64.5708 32.876C64.9788 32.636 65.3028 32.294 65.5428 31.85C65.7948 31.406 65.9208 30.878 65.9208 30.266ZM72.846 26.756C73.17 26.3 73.614 25.922 74.178 25.622C74.754 25.31 75.408 25.154 76.14 25.154C76.992 25.154 77.76 25.364 78.444 25.784C79.14 26.204 79.686 26.804 80.082 27.584C80.49 28.352 80.694 29.246 80.694 30.266C80.694 31.286 80.49 32.192 80.082 32.984C79.686 33.764 79.14 34.37 78.444 34.802C77.76 35.234 76.992 35.45 76.14 35.45C75.408 35.45 74.76 35.3 74.196 35C73.644 34.7 73.194 34.322 72.846 33.866V40.04H70.326V25.316H72.846V26.756ZM78.12 30.266C78.12 29.666 77.994 29.15 77.742 28.718C77.502 28.274 77.178 27.938 76.77 27.71C76.374 27.482 75.942 27.368 75.474 27.368C75.018 27.368 74.586 27.488 74.178 27.728C73.782 27.956 73.458 28.292 73.206 28.736C72.966 29.18 72.846 29.702 72.846 30.302C72.846 30.902 72.966 31.424 73.206 31.868C73.458 32.312 73.782 32.654 74.178 32.894C74.586 33.122 75.018 33.236 75.474 33.236C75.942 33.236 76.374 33.116 76.77 32.876C77.178 32.636 77.502 32.294 77.742 31.85C77.994 31.406 78.12 30.878 78.12 30.266ZM91.1523 35.414C90.2763 35.414 89.4843 35.264 88.7763 34.964C88.0803 34.664 87.5283 34.232 87.1203 33.668C86.7123 33.104 86.5023 32.438 86.4903 31.67H89.1903C89.2263 32.186 89.4063 32.594 89.7303 32.894C90.0663 33.194 90.5223 33.344 91.0983 33.344C91.6863 33.344 92.1483 33.206 92.4843 32.93C92.8203 32.642 92.9883 32.27 92.9883 31.814C92.9883 31.442 92.8743 31.136 92.6463 30.896C92.4183 30.656 92.1303 30.47 91.7823 30.338C91.4463 30.194 90.9783 30.038 90.3783 29.87C89.5623 29.63 88.8963 29.396 88.3803 29.168C87.8763 28.928 87.4383 28.574 87.0663 28.106C86.7063 27.626 86.5263 26.99 86.5263 26.198C86.5263 25.454 86.7123 24.806 87.0843 24.254C87.4563 23.702 87.9783 23.282 88.6503 22.994C89.3223 22.694 90.0903 22.544 90.9543 22.544C92.2503 22.544 93.3003 22.862 94.1043 23.498C94.9203 24.122 95.3703 24.998 95.4543 26.126H92.6823C92.6583 25.694 92.4723 25.34 92.1243 25.064C91.7883 24.776 91.3383 24.632 90.7743 24.632C90.2823 24.632 89.8863 24.758 89.5863 25.01C89.2983 25.262 89.1543 25.628 89.1543 26.108C89.1543 26.444 89.2623 26.726 89.4783 26.954C89.7063 27.17 89.9823 27.35 90.3063 27.494C90.6423 27.626 91.1103 27.782 91.7103 27.962C92.5263 28.202 93.1923 28.442 93.7083 28.682C94.2243 28.922 94.6683 29.282 95.0403 29.762C95.4123 30.242 95.5983 30.872 95.5983 31.652C95.5983 32.324 95.4243 32.948 95.0763 33.524C94.7283 34.1 94.2183 34.562 93.5463 34.91C92.8743 35.246 92.0763 35.414 91.1523 35.414ZM100.717 27.386V32.21C100.717 32.546 100.795 32.792 100.951 32.948C101.119 33.092 101.395 33.164 101.779 33.164H102.949V35.288H101.365C99.241 35.288 98.179 34.256 98.179 32.192V27.386H96.991V25.316H98.179V22.85H100.717V25.316H102.949V27.386H100.717ZM109.19 35.45C108.23 35.45 107.366 35.24 106.598 34.82C105.83 34.388 105.224 33.782 104.78 33.002C104.348 32.222 104.132 31.322 104.132 30.302C104.132 29.282 104.354 28.382 104.798 27.602C105.254 26.822 105.872 26.222 106.652 25.802C107.432 25.37 108.302 25.154 109.262 25.154C110.222 25.154 111.092 25.37 111.872 25.802C112.652 26.222 113.264 26.822 113.708 27.602C114.164 28.382 114.392 29.282 114.392 30.302C114.392 31.322 114.158 32.222 113.69 33.002C113.234 33.782 112.61 34.388 111.818 34.82C111.038 35.24 110.162 35.45 109.19 35.45ZM109.19 33.254C109.646 33.254 110.072 33.146 110.468 32.93C110.876 32.702 111.2 32.366 111.44 31.922C111.68 31.478 111.8 30.938 111.8 30.302C111.8 29.354 111.548 28.628 111.044 28.124C110.552 27.608 109.946 27.35 109.226 27.35C108.506 27.35 107.9 27.608 107.408 28.124C106.928 28.628 106.688 29.354 106.688 30.302C106.688 31.25 106.922 31.982 107.39 32.498C107.87 33.002 108.47 33.254 109.19 33.254ZM118.76 26.864C119.084 26.336 119.504 25.922 120.02 25.622C120.548 25.322 121.148 25.172 121.82 25.172V27.818H121.154C120.362 27.818 119.762 28.004 119.354 28.376C118.958 28.748 118.76 29.396 118.76 30.32V35.288H116.24V25.316H118.76V26.864ZM132.787 30.086C132.787 30.446 132.763 30.77 132.715 31.058H125.425C125.485 31.778 125.737 32.342 126.181 32.75C126.625 33.158 127.171 33.362 127.819 33.362C128.755 33.362 129.421 32.96 129.817 32.156H132.535C132.247 33.116 131.695 33.908 130.879 34.532C130.063 35.144 129.061 35.45 127.873 35.45C126.913 35.45 126.049 35.24 125.281 34.82C124.525 34.388 123.931 33.782 123.499 33.002C123.079 32.222 122.869 31.322 122.869 30.302C122.869 29.27 123.079 28.364 123.499 27.584C123.919 26.804 124.507 26.204 125.263 25.784C126.019 25.364 126.889 25.154 127.873 25.154C128.821 25.154 129.667 25.358 130.411 25.766C131.167 26.174 131.749 26.756 132.157 27.512C132.577 28.256 132.787 29.114 132.787 30.086ZM130.177 29.366C130.165 28.718 129.931 28.202 129.475 27.818C129.019 27.422 128.461 27.224 127.801 27.224C127.177 27.224 126.649 27.416 126.217 27.8C125.797 28.172 125.539 28.694 125.443 29.366H130.177Z" fill="#FAFAFF"/>
</svg>
