<svg width="64" height="64" viewBox="0 0 64 64" fill="none" xmlns="http://www.w3.org/2000/svg">
<circle cx="32" cy="32" r="32" fill="#2D5DD3"/>
<path d="M47.5172 15.7328H46.7672V16.4828V17.7242C46.7672 18.1837 46.5847 18.6245 46.2597 18.9494C45.9348 19.2744 45.494 19.4569 45.0345 19.4569C44.5749 19.4569 44.1342 19.2744 43.8092 18.9494C43.4843 18.6245 43.3017 18.1837 43.3017 17.7242V16.4828V15.7328H42.5517H38.8276H38.0776V16.4828V17.7242C38.0776 18.1837 37.895 18.6245 37.5701 18.9494L38.1004 19.4797L37.5701 18.9494C37.2451 19.2744 36.8044 19.4569 36.3448 19.4569C35.8853 19.4569 35.4445 19.2744 35.1196 18.9494L34.5893 19.4797L35.1196 18.9494C34.7946 18.6245 34.6121 18.1837 34.6121 17.7242V16.4828V15.7328H33.8621H30.1379H29.3879V16.4828V17.7242C29.3879 18.1837 29.2054 18.6245 28.8804 18.9494C28.5555 19.2744 28.1147 19.4569 27.6552 19.4569C27.1956 19.4569 26.7549 19.2744 26.4299 18.9494C26.105 18.6245 25.9224 18.1837 25.9224 17.7242V16.4828V15.7328H25.1724H21.4483H20.6983V16.4828V17.7242C20.6983 18.1837 20.5157 18.6245 20.1908 18.9494C19.8658 19.2744 19.4251 19.4569 18.9655 19.4569C18.506 19.4569 18.0652 19.2744 17.7403 18.9494C17.4153 18.6245 17.2328 18.1837 17.2328 17.7242V16.4828V15.7328H16.4828H15.2414C14.7132 15.7328 14.2067 15.9426 13.8333 16.316C13.4598 16.6895 13.25 17.196 13.25 17.7242V22.6897V23.4397H14H50H50.75V22.6897V17.7242C50.75 17.196 50.5402 16.6895 50.1667 16.3161C49.7933 15.9426 49.2868 15.7328 48.7586 15.7328H47.5172Z" fill="#FAFAFF" stroke="#0E0C34" stroke-width="1.5"/>
<path d="M18.9655 19.7155C19.4936 19.7155 20.0002 19.5057 20.3736 19.1323C20.7471 18.7588 20.9569 18.2523 20.9569 17.7241V15.2414C20.9569 14.7132 20.7471 14.2067 20.3736 13.8333C20.0002 13.4598 19.4936 13.25 18.9655 13.25C18.4374 13.25 17.9308 13.4598 17.5574 13.8333C17.1839 14.2067 16.9741 14.7132 16.9741 15.2414V17.7241C16.9741 18.2523 17.1839 18.7588 17.5574 19.1323C17.9308 19.5057 18.4374 19.7155 18.9655 19.7155Z" fill="#FAFAFF" stroke="#0E0C34" stroke-width="1.5"/>
<path d="M36.3448 19.7155C36.8729 19.7155 37.3794 19.5057 37.7529 19.1323C38.1263 18.7588 38.3362 18.2523 38.3362 17.7241V15.2414C38.3362 14.7132 38.1263 14.2067 37.7529 13.8333C37.3794 13.4598 36.8729 13.25 36.3448 13.25C35.8166 13.25 35.3101 13.4598 34.9367 13.8333C34.5632 14.2067 34.3534 14.7132 34.3534 15.2414V17.7241C34.3534 18.2523 34.5632 18.7588 34.9367 19.1323C35.3101 19.5057 35.8166 19.7155 36.3448 19.7155Z" fill="#FAFAFF" stroke="#0E0C34" stroke-width="1.5"/>
<path d="M27.6552 19.7155C28.1833 19.7155 28.6899 19.5057 29.0633 19.1323C29.4368 18.7588 29.6466 18.2523 29.6466 17.7241V15.2414C29.6466 14.7132 29.4368 14.2067 29.0633 13.8333C28.6899 13.4598 28.1833 13.25 27.6552 13.25C27.1271 13.25 26.6205 13.4598 26.2471 13.8333C25.8736 14.2067 25.6638 14.7132 25.6638 15.2414V17.7241C25.6638 18.2523 25.8736 18.7588 26.2471 19.1323C26.6205 19.5057 27.1271 19.7155 27.6552 19.7155Z" fill="#FAFAFF" stroke="#0E0C34" stroke-width="1.5"/>
<path d="M45.0345 19.7155C45.5626 19.7155 46.0691 19.5057 46.4426 19.1323C46.816 18.7588 47.0258 18.2523 47.0258 17.7241V15.2414C47.0258 14.7132 46.816 14.2067 46.4426 13.8333C46.0691 13.4598 45.5626 13.25 45.0345 13.25C44.5063 13.25 43.9998 13.4598 43.6264 13.8333C43.2529 14.2067 43.0431 14.7132 43.0431 15.2414V17.7241C43.0431 18.2523 43.2529 18.7588 43.6264 19.1323C43.9998 19.5057 44.5063 19.7155 45.0345 19.7155Z" fill="#FAFAFF" stroke="#0E0C34" stroke-width="1.5"/>
<path d="M40.069 47.0259C41.5116 47.0259 42.681 45.8564 42.681 44.4138C42.681 42.9712 41.5116 41.8018 40.069 41.8018C38.6264 41.8018 37.4569 42.9712 37.4569 44.4138C37.4569 45.8564 38.6264 47.0259 40.069 47.0259Z" fill="#FAFAFF" stroke="#0E0C34" stroke-width="1.5"/>
<path d="M50.75 23.931V23.181H50H14H13.25V23.931V48.7586C13.25 49.2868 13.4598 49.7933 13.8333 50.1667C14.2067 50.5402 14.7132 50.75 15.2414 50.75H48.7586C49.2868 50.75 49.7933 50.5402 50.1667 50.1667C50.5402 49.7933 50.75 49.2868 50.75 48.7586V23.931ZM26.564 38.626L26.5327 38.3167C26.6751 38.3297 26.8187 38.3362 26.9635 38.3362C27.1571 38.3362 27.3478 38.3251 27.5352 38.3036L27.5074 38.5987C27.4476 39.2329 27.2559 39.6716 27.0877 39.8663L27.0345 39.9279L26.9813 39.8663C26.8158 39.6748 26.6267 39.2464 26.564 38.626ZM39.5983 42.1076L40.069 42.0116L40.5397 42.1076C41.1111 42.2243 41.6189 42.549 41.9645 43.0187C42.3102 43.4885 42.4691 44.0698 42.4105 44.6501C42.3519 45.2304 42.0799 45.7682 41.6473 46.1593C41.2146 46.5504 40.6522 46.767 40.069 46.767C39.4857 46.767 38.9233 46.5504 38.4907 46.1593C38.058 45.7682 37.7861 45.2304 37.7274 44.6501C37.6688 44.0698 37.8277 43.4885 38.1734 43.0187C38.5191 42.549 39.0268 42.2243 39.5983 42.1076Z" fill="#FAFAFF" stroke="#0E0C34" stroke-width="1.5"/>
</svg>
