<svg width="96" height="32" viewBox="0 0 96 32" fill="none" xmlns="http://www.w3.org/2000/svg">
<path fill-rule="evenodd" clip-rule="evenodd" d="M0.805664 8.19375V30.8372C0.805664 33.1867 8.02565 31.6533 9.9798 29.0988C12.8129 25.3954 11.991 18.348 11.991 12.5589C11.991 4.23178 10.73 5.46573 23.9948 5.46573C25.1117 5.46573 25.8364 5.6762 26.3567 6.3776C27.872 8.42062 27.4796 12.663 25.0675 13.0859C21.4635 13.7179 17.015 11.5701 14.7226 15.5633C12.3044 19.7755 15.0196 18.5607 15.5376 18.5607C16.8884 18.5607 24.4513 18.1997 25.8373 19.1662C27.9889 20.6663 27.7597 25.8453 24.7579 26.417C19.879 27.3461 10.0813 23.7718 10.0813 31.9285H31.3606C33.4155 31.9285 35.061 30.7097 36.0715 29.5463C38.9851 26.1916 38.4611 18.8951 34.5721 16.7133C33.1846 15.9348 33.5169 16.4829 33.2703 15.5597C35.7452 15.3537 37.9081 11.6397 37.9081 8.73945C37.9081 4.25336 36.1135 0.00953202 31.6334 0.00953202H5.1707C1.72372 0.00953202 0.805664 5.16871 0.805664 8.19383L0.805664 8.19375ZM94.9227 25.367C95.3228 22.8347 95.1988 16.3029 95.1988 13.65C95.1988 9.70036 95.6967 3.31837 94.9259 0.00945467C93.5595 0.00945467 92.1902 -0.00230239 90.8248 0.00040483C90.0155 0.00202916 89.7988 -0.00237973 89.0699 0.151003C86.4672 0.698635 84.3289 3.01856 84.0418 5.76685L84.0135 31.9285C87.3444 31.9285 88.5953 32.0005 90.8466 30.8501C92.6565 29.9254 94.6238 27.2582 94.9227 25.367ZM42.0003 8.73945V25.3809C42.0003 28.7733 43.8055 31.9285 46.6381 31.9285H73.3737C75.4864 31.9285 77.3135 30.708 78.2561 29.4449C80.7012 26.1684 79.9212 19.4605 79.9212 14.1957C79.9212 12.2526 61.0679 13.316 60.006 13.9229C58.8891 14.5614 58.0889 15.8682 57.7258 17.1469C56.7183 20.6944 63.1687 17.8259 66.4474 18.9394C68.7684 19.7276 69.0643 26.4723 65.4622 26.4723H55.9137C54.3812 26.4723 53.1856 25.2767 53.1856 23.7441V8.19375C53.1856 6.67941 54.2248 5.74968 55.4261 5.52367L78.0373 5.48785C79.316 5.49512 79.7711 5.73769 79.8252 4.75079C79.9394 2.66663 77.7474 0.00945467 74.1922 0.00945467H46.6381C42.1334 0.00945467 42.0003 5.12176 42.0003 8.73937V8.73945Z" fill="#0E0C34"/>
</svg>
