<svg width="64" height="64" viewBox="0 0 64 64" fill="none" xmlns="http://www.w3.org/2000/svg">
<circle cx="32" cy="32" r="32" fill="#FE8039"/>
<path d="M44.4116 22.542L44.4117 22.5421L47.0699 23.975C48.9082 24.9659 49.624 27.2254 48.7171 29.1104L47.3956 31.8571L46.7197 31.5319L47.3956 31.8571C47.3519 31.9478 47.3519 32.0484 47.3956 32.1393C47.3956 32.1393 47.3956 32.1393 47.3956 32.1394L48.7171 34.886C49.624 36.771 48.9082 39.0306 47.0699 40.0215C47.0699 40.0215 47.0699 40.0215 47.0699 40.0215L44.4118 41.4544C44.3306 41.4982 44.2729 41.5752 44.2554 41.6764L43.7355 44.6875C43.3787 46.754 41.4865 48.1649 39.415 47.8672L36.4363 47.4391C36.4361 47.4391 36.4358 47.439 36.4356 47.439C36.3471 47.4266 36.2624 47.4535 36.1949 47.5198L34.0322 49.6453C33.2874 50.3775 32.3246 50.7481 31.3591 50.7482C30.3931 50.7483 29.4308 50.3776 28.6858 49.6454L29.2115 49.1105L28.6858 49.6454L26.5231 47.5198C26.4549 47.4527 26.37 47.4264 26.2829 47.4389L26.2826 47.439L23.303 47.8672C23.119 47.8936 22.9354 47.9066 22.7539 47.9066L44.4116 22.542ZM44.4116 22.542C44.3306 22.4983 44.2729 22.4214 44.2554 22.3203C44.2554 22.3202 44.2554 22.3202 44.2554 22.3201L43.7355 19.3089C43.3787 17.2423 41.4856 15.8316 39.415 16.1292C39.415 16.1292 39.415 16.1292 39.415 16.1292L36.4357 16.5574L44.4116 22.542ZM18.9825 19.3091L18.9825 19.3091C19.3393 17.2426 21.2317 15.8316 23.303 16.1294C23.303 16.1294 23.303 16.1294 23.303 16.1294L26.282 16.5576C26.2821 16.5576 26.2821 16.5576 26.2822 16.5576C26.3706 16.5702 26.4553 16.5434 26.523 16.4769L18.9825 19.3091ZM18.9825 19.3091L18.4627 22.3202C18.4627 22.3203 18.4626 22.3203 18.4626 22.3203C18.4451 22.4214 18.3875 22.4984 18.3064 22.5422C18.3063 22.5422 18.3063 22.5422 18.3063 22.5422L15.6482 23.9751L18.9825 19.3091ZM14.6768 28.7854L14.001 29.1106C13.0941 27.2256 13.8099 24.966 15.6482 23.9751L14.6768 28.7854ZM14.6768 28.7854L14.001 29.1106L15.3224 31.8572C15.3662 31.9481 15.3661 32.0487 15.3225 32.1394L15.9983 32.4646L15.3225 32.1394L14.0009 34.8861L14.0009 34.8861C13.094 36.7711 13.8098 39.0305 15.6481 40.0215L18.3063 41.4544L18.3064 41.4545C18.3874 41.4981 18.4451 41.5751 18.4626 41.6762C18.4626 41.6762 18.4627 41.6763 18.4627 41.6763L18.9825 44.6876L18.9825 44.6876C19.3073 46.5685 20.9032 47.9067 22.7538 47.9066L14.6768 28.7854ZM28.6858 14.3511L26.523 16.4769L36.4355 16.5574C36.3475 16.57 36.2629 16.5433 36.195 16.4767L34.0323 14.351C32.5362 12.8806 30.1818 12.8805 28.6858 14.351C28.6858 14.351 28.6858 14.351 28.6858 14.3511ZM24.4274 39.0578L24.4272 39.0576C24.3155 38.9441 24.3155 38.7552 24.4272 38.6417L37.9147 24.9387L37.9148 24.9387C38.0199 24.8318 38.1856 24.8318 38.2908 24.9387C38.4025 25.0522 38.4025 25.2411 38.2908 25.3547L24.8032 39.0576C24.7491 39.1127 24.682 39.1378 24.6152 39.1378C24.5482 39.1378 24.4813 39.1126 24.4274 39.0578ZM27.2716 23.4048C28.9122 23.4048 30.2684 24.7654 30.2684 26.4614C30.2684 28.1574 28.9122 29.518 27.2716 29.518C25.6311 29.518 24.2749 28.1574 24.2749 26.4614C24.2749 24.7654 25.6311 23.4048 27.2716 23.4048ZM35.4463 40.5917C33.8057 40.5917 32.4495 39.231 32.4495 37.5351C32.4495 35.8391 33.8057 34.4785 35.4463 34.4785C37.0868 34.4785 38.443 35.8391 38.443 37.5351C38.443 39.231 37.0868 40.5917 35.4463 40.5917Z" fill="#FAFAFF" stroke="#0E0C34" stroke-width="1.5"/>
<path d="M35.4463 35.0548C34.0819 35.0548 32.9932 36.178 32.9932 37.535C32.9932 38.8921 34.0818 40.0153 35.4463 40.0153C36.8107 40.0153 37.8993 38.8921 37.8993 37.535C37.8993 36.178 36.8107 35.0548 35.4463 35.0548Z" fill="#FAFAFF" stroke="#0E0C34" stroke-width="1.5"/>
<path d="M29.7247 26.4613L29.7247 26.4613C29.7246 25.1044 28.6361 23.9811 27.2716 23.9811C25.9072 23.9811 24.8186 25.1043 24.8186 26.4613C24.8186 27.8183 25.9072 28.9416 27.2716 28.9416C28.636 28.9416 29.7247 27.8184 29.7247 26.4613Z" fill="#FAFAFF" stroke="#0E0C34" stroke-width="1.5"/>
</svg>
