<svg width="106" height="48" viewBox="0 0 106 48" fill="none" xmlns="http://www.w3.org/2000/svg">
<path fill-rule="evenodd" clip-rule="evenodd" d="M12.1108 3.10146C12.1765 3.89155 13.0833 4.71498 13.2923 5.61222C14.727 5.27795 17.4689 2.80605 24.2216 2.80605C37.4894 2.80605 47.9972 15.6796 44.7241 28.9209C42.8172 36.6352 36.592 43.1812 28.6663 44.7647C23.9947 45.6981 19.6194 45.4041 15.2607 43.3731C13.8975 42.7379 12.709 42.0673 11.5408 41.1853C10.4703 40.3771 9.16775 39.3598 8.35601 38.3147C6.28373 35.6468 5.17407 34.5168 3.93129 30.7763C3.24856 28.7213 2.80613 26.6017 2.80613 23.9261H0C0 27.5936 0.80433 31.3038 2.11515 33.9217C3.43058 36.5488 4.21983 37.8906 6.08991 39.9901C6.38695 40.3235 6.42438 40.4588 6.75379 40.8031C7.28935 41.3627 7.71779 41.6144 8.23462 42.1285C9.00905 42.8987 10.5904 43.9993 11.5469 44.5762C14.9658 46.6384 18.8007 47.7776 22.6737 48H25.5061C30.0385 47.7372 34.4973 46.2164 38.2755 43.4447C39.46 42.5758 40.3582 41.6846 41.3908 40.6523C48.176 33.8691 49.946 23.2951 46.1233 14.4306C45.2992 12.5196 44.0372 10.5274 42.7684 8.92388C38.5637 3.60958 31.5392 0 24.6646 0C21.5162 0 20.0926 0.154007 17.216 0.969853L13.3892 2.45989C12.9585 2.67591 12.4978 2.99816 12.1108 3.1015V3.10146Z" fill="#0E0C34"/>
<path fill-rule="evenodd" clip-rule="evenodd" d="M5.31698 24.0738C5.31698 38.0942 20.089 46.7274 32.1005 40.962C33.7371 40.1764 35.544 38.9783 36.7388 37.7725C37.5537 36.9503 40.0715 34.4426 40.1724 33.2307C39.3566 33.0406 38.6251 32.2392 37.8093 32.0492C36.4367 34.0989 34.9937 35.8876 32.849 37.2797C26.8216 41.1919 18.7256 40.7254 13.5504 35.9265C11.6788 34.191 10.5646 32.8922 9.49301 30.3839C5.96625 22.129 9.57651 13.5464 17.2306 9.69827C24.6856 5.95038 34.1583 9.19852 37.8093 16.0985C38.3627 15.9695 39.8235 15.1017 40.32 14.7692C37.5746 9.58074 31.0337 5.31689 24.8123 5.31689C18.9058 5.31689 14.6329 7.01675 10.6707 10.966C7.81413 13.8133 5.31689 18.42 5.31689 24.0738L5.31698 24.0738Z" fill="#0E0C34"/>
<path fill-rule="evenodd" clip-rule="evenodd" d="M22.4493 22.5968H13.7354C13.7354 20.7134 14.677 20.148 16.3939 20.0861C17.1556 20.0585 17.3726 19.9173 18.0144 19.9328C18.4474 19.9433 20.633 20.1256 21.1684 20.333C22.1107 20.6979 22.4493 21.3425 22.4493 22.5968V22.5968ZM11.9631 24.0738C11.9631 29.9631 14.7812 29.5383 19.3478 29.5383C23.2436 29.5383 24.4013 26.8799 23.3355 26.8799C20.4813 26.8799 23.2764 28.0614 18.1662 28.0614C13.4895 28.0614 13.7354 26.8948 13.7354 24.0738H24.0739C24.0739 22.0535 24.2029 20.506 22.5417 19.2552C21.4237 18.4133 19.1015 18.4614 17.4278 18.4614C13.0936 18.4614 11.9632 19.7548 11.9632 24.0738H11.9631Z" fill="#0E0C34"/>
<path fill-rule="evenodd" clip-rule="evenodd" d="M64.0984 28.0615H57.0091V20.0861H64.8368C67.2813 20.0861 67.0522 22.6467 67.0522 24.5169C67.0522 26.9361 66.564 28.0615 64.0984 28.0615ZM55.3845 19.0522V29.3908H64.3938C68.3177 29.3908 68.6768 27.1533 68.6768 23.483C68.6768 19.1795 67.1443 18.6092 62.9168 18.6092H55.8276C55.4873 18.6092 55.3845 18.712 55.3845 19.0523V19.0522Z" fill="#0E0C34"/>
<path fill-rule="evenodd" clip-rule="evenodd" d="M78.4247 27.9138C73.5279 27.9138 73.4032 28.2053 73.4032 24.6646C73.4032 22.5654 76.3305 23.0399 78.4247 23.0399C80.3815 23.0399 80.3447 24.4284 80.3447 25.6984C80.3447 27.1355 79.8622 27.9138 78.4247 27.9138ZM71.9263 25.4031C71.9263 29.6207 74.8374 29.0953 78.1294 29.0953C79.2526 29.0953 79.7966 28.787 80.3447 28.2092C80.3447 29.2478 80.2818 30.1777 79.6372 30.6033C78.8347 31.1331 75.5675 31.1009 74.4705 30.8343C73.8841 30.6917 73.5682 30.463 73.5509 29.6861H72.074C72.3563 30.8981 72.3357 31.3421 73.5246 31.7802C75.0605 32.3461 79.2595 32.3682 80.4966 31.6103C81.4125 31.0492 81.674 29.8241 81.674 28.3569V22.3015C81.674 21.7764 81.3862 21.8584 80.7878 21.8584C80.2966 21.8584 80.3553 22.1236 80.3447 22.5968C78.7469 21.5268 77.7935 21.8584 75.1755 21.8584C72.989 21.8584 71.9263 23.2207 71.9263 25.403V25.4031Z" fill="#0E0C34"/>
<path fill-rule="evenodd" clip-rule="evenodd" d="M99.1014 28.3568C97.1018 28.3568 94.966 28.6889 94.966 27.1753C94.966 25.9793 96.4039 25.9937 97.9199 25.9937C98.8402 25.9937 100.978 25.9634 101.303 26.7604C101.824 28.0391 100.367 28.3567 99.1014 28.3567V28.3568ZM93.9322 23.7783V24.2214H95.2614C95.2974 22.6049 96.8195 23.0399 99.6922 23.0399C101.368 23.0399 101.464 23.8845 101.464 25.5506C99.9875 24.5616 96.7829 24.6661 95.0219 25.0158C93.0551 25.4064 93.1655 28.8178 94.922 29.287C95.8999 29.5482 100.835 29.9841 101.317 28.6522C101.417 28.8109 101.401 28.6552 101.452 28.9606C101.474 29.0946 101.464 29.2539 101.464 29.3907H102.794C102.794 27.2214 103.167 23.7935 102.101 22.6986C100.927 21.4926 98.8161 21.8584 96.5907 21.8584C95.257 21.8584 93.9322 22.2472 93.9322 23.7784L93.9322 23.7783Z" fill="#0E0C34"/>
<path fill-rule="evenodd" clip-rule="evenodd" d="M29.243 16.3937V18.6091H27.323V20.0861H29.243V26.5845C29.243 27.974 30.2497 29.1431 31.3431 29.3583L36.0368 29.5384V28.0614C29.2715 28.0614 30.8676 28.7414 30.8676 20.086H36.1845C36.1845 18.1197 36.9621 18.6091 30.8676 18.6091C30.8676 15.5987 31.1496 15.9506 29.686 15.9506C29.3457 15.9506 29.2429 16.0534 29.2429 16.3937H29.243Z" fill="#0E0C34"/>
<path fill-rule="evenodd" clip-rule="evenodd" d="M86.5477 21.8584C84.5584 21.8584 84.6277 21.695 84.6277 22.5968C84.6277 23.2269 85.1945 23.0399 86.5477 23.0399V27.6184C86.5477 28.2747 87.034 28.9074 87.5293 29.1475C88.4679 29.6026 93.0462 30.2934 93.0462 27.1753C93.0462 25.7519 93.171 25.846 92.16 25.846C91.4743 25.846 91.7169 27.024 91.7169 27.766C90.7466 28.4158 91.1244 28.3568 89.5015 28.3568C87.2614 28.3568 87.7292 26.4004 87.7292 23.0398H92.8985V21.8583H87.7292V20.086H86.5477V21.8583L86.5477 21.8584Z" fill="#0E0C34"/>
<path fill-rule="evenodd" clip-rule="evenodd" d="M25.2554 19.0522V29.3907H26.7323C26.7323 27.8089 26.6592 22.395 26.8397 21.0796C27.2382 18.174 26.6002 18.6091 25.6985 18.6091C25.3582 18.6091 25.2554 18.7119 25.2554 19.0522Z" fill="#0E0C34"/>
<path fill-rule="evenodd" clip-rule="evenodd" d="M103.828 19.0522V28.9476C103.828 29.5219 104.207 29.3907 105.157 29.3907V18.6092C104.207 18.6092 103.828 18.478 103.828 19.0523V19.0522Z" fill="#0E0C34"/>
<path fill-rule="evenodd" clip-rule="evenodd" d="M82.8552 22.3015V29.3907C84.7032 29.3907 84.1845 30.2877 84.1845 22.3015C84.1845 21.6529 82.8552 21.6529 82.8552 22.3015Z" fill="#0E0C34"/>
<path fill-rule="evenodd" clip-rule="evenodd" d="M69.7107 22.3015V29.3907H71.0399V22.3015C71.0399 21.6529 69.7107 21.6529 69.7107 22.3015Z" fill="#0E0C34"/>
<path fill-rule="evenodd" clip-rule="evenodd" d="M25.2553 16.3938C25.2553 17.6035 25.0811 17.4276 26.8799 17.4276C26.8799 15.7648 27.064 15.9507 25.6984 15.9507C25.3581 15.9507 25.2553 16.0535 25.2553 16.3938H25.2553Z" fill="#0E0C34"/>
<path fill-rule="evenodd" clip-rule="evenodd" d="M69.7106 19.0522C69.7106 20.3112 69.6039 20.2337 70.5968 20.2337C71.2721 20.2337 71.2721 18.6091 70.5968 18.6091C69.9984 18.6091 69.7106 18.5271 69.7106 19.0522V19.0522Z" fill="#0E0C34"/>
<path fill-rule="evenodd" clip-rule="evenodd" d="M82.8554 19.0522C82.8554 20.3112 82.7487 20.2337 83.7415 20.2337C84.4169 20.2337 84.4169 18.6091 83.7415 18.6091C83.1431 18.6091 82.8554 18.5271 82.8554 19.0522V19.0522Z" fill="#0E0C34"/>
</svg>
