<svg width="64" height="64" viewBox="0 0 64 64" fill="none" xmlns="http://www.w3.org/2000/svg">
<circle cx="32" cy="32" r="32" fill="#2DD3D3"/>
<path d="M39.0515 16.7281V16.2281H38.5515H35.9078C35.8028 16.2225 35.7159 16.1527 35.6867 16.0582C35.3806 14.5323 34.0094 13.4531 32.449 13.5016C30.8857 13.4806 29.5265 14.5711 29.2212 16.0987C29.1935 16.1767 29.1163 16.2317 29.0267 16.2285L29.0177 16.2282H29.0088H26.4485H25.9485V16.7282V21.3493V21.8493H26.4485H38.5515H39.0515V21.3493V16.7281Z" fill="#FAFAFF" stroke="#0E0C34"/>
<path d="M21.0658 19.0008H25.052H25.552V19.5008V21.8575C25.552 21.9719 25.5834 22.108 25.6321 22.1985C25.6409 22.215 25.6487 22.227 25.655 22.2355H39.3133C39.3228 22.2261 39.3378 22.2084 39.357 22.1765C39.4142 22.082 39.4479 21.952 39.4479 21.8575V19.5007V19.0007H39.9479H43.9343C43.9885 18.9972 44.0427 18.9955 44.0969 18.9956L44.0973 18.9956C45.4238 18.9992 46.5026 20.0704 46.4994 21.396V21.3954H45.9994L46.4994 21.3968L46.4994 47.8658C46.5301 49.2928 45.391 50.4687 43.9622 50.4999L43.9513 50.5001V50.5H21.0488H21.0487H21.0487H21.0487H21.0487H21.0487H21.0487H21.0486H21.0486H21.0486H21.0486H21.0486H21.0486H21.0486H21.0485H21.0485H21.0485H21.0485H21.0485H21.0485H21.0485H21.0484H21.0484H21.0484H21.0484H21.0484H21.0484H21.0484H21.0483H21.0483H21.0483H21.0483H21.0483H21.0483H21.0483H21.0482H21.0482H21.0482H21.0482H21.0482H21.0482H21.0482H21.0481H21.0481H21.0481H21.0481H21.0481H21.0481H21.0481H21.048H21.048H21.048H21.048H21.048H21.048H21.0479H21.0479H21.0479H21.0479H21.0479H21.0479H21.0479H21.0478H21.0478H21.0478H21.0478H21.0478H21.0478H21.0478H21.0477H21.0477H21.0477H21.0477H21.0477H21.0366L21.0366 50.4999C19.6092 50.4681 18.4715 49.2941 18.5005 47.869V21.3963V21.3955H19.0005L21.0658 19.0008ZM21.0658 19.0008C19.7509 18.9152 18.6043 19.8989 18.507 21.2146L21.0658 19.0008ZM46.4994 47.8743V47.8715C46.4994 47.8741 46.4994 47.8752 46.4994 47.8743ZM39.3015 22.2447C39.3014 22.2445 39.303 22.2433 39.3063 22.2417C39.3032 22.2442 39.3015 22.245 39.3015 22.2447ZM24.7582 44.7816L24.7357 44.8024L24.716 44.8258C24.6938 44.8522 24.6627 44.8705 24.6278 44.8771C24.5723 44.8693 24.5212 44.8431 24.4831 44.8031L24.4831 44.803L24.4775 44.7973L22.5792 42.8668C22.5144 42.7888 22.5214 42.6745 22.5972 42.6048L22.6025 42.5999L22.6077 42.5949C22.6833 42.5213 22.8047 42.5197 22.8824 42.5899L24.2694 44.0586L24.6109 44.4202L24.9743 44.0807L28.1037 41.1568C28.1924 41.1117 28.3026 41.1387 28.3591 41.2199L28.3591 41.22C28.4044 41.285 28.4044 41.3699 28.3604 41.4348L24.7582 44.7816ZM24.7582 37.3878L24.7357 37.4086L24.716 37.4321C24.6938 37.4584 24.6627 37.4767 24.6278 37.4833C24.5723 37.4755 24.5212 37.4493 24.4831 37.4093L24.4831 37.4093L24.4775 37.4035L22.5792 35.473C22.5144 35.3951 22.5214 35.2807 22.5972 35.211L22.6025 35.2062L22.6077 35.2011C22.6833 35.1276 22.8047 35.1259 22.8824 35.1961L24.2694 36.6648L24.6109 37.0264L24.9743 36.6869L28.1037 33.763C28.1924 33.718 28.3027 33.7449 28.3591 33.8261L28.3591 33.8262C28.4044 33.8913 28.4044 33.9761 28.3604 34.041L24.7582 37.3878ZM24.7582 29.994L24.7357 30.0149L24.716 30.0383C24.6938 30.0646 24.6627 30.0829 24.6278 30.0895C24.5723 30.0818 24.5212 30.0556 24.4831 30.0155L24.4831 30.0155L24.4775 30.0097L22.5792 28.0792C22.5144 28.0013 22.5214 27.887 22.5972 27.8173L22.6025 27.8124L22.6077 27.8074C22.6833 27.7338 22.8047 27.7321 22.8824 27.8023L24.2694 29.2711L24.6109 29.6326L24.9743 29.2931L28.1037 26.3692C28.1924 26.3242 28.3027 26.3511 28.3591 26.4323L28.3591 26.4324C28.4044 26.4975 28.4044 26.5824 28.3604 26.6472L24.7582 29.994ZM42.2754 43.9547H31.5689C31.4559 43.9547 31.3706 43.8647 31.3706 43.7615C31.3706 43.6583 31.456 43.5683 31.5689 43.5683H42.2753C42.3882 43.5683 42.4736 43.6583 42.4736 43.7615C42.4736 43.8648 42.3882 43.9547 42.2754 43.9547ZM42.2754 36.5609H31.5689C31.456 36.5609 31.3706 36.4709 31.3706 36.3677C31.3706 36.2645 31.456 36.1745 31.5689 36.1745H42.2753C42.3882 36.1745 42.4736 36.2645 42.4736 36.3677C42.4736 36.471 42.3882 36.5609 42.2754 36.5609ZM42.2754 29.1671H31.5689C31.456 29.1671 31.3706 29.0772 31.3706 28.9739C31.3706 28.8707 31.456 28.7807 31.5689 28.7807H42.2753C42.3882 28.7807 42.4736 28.8707 42.4736 28.9739C42.4736 29.0773 42.3883 29.1671 42.2754 29.1671Z" fill="#FAFAFF" stroke="#0E0C34"/>
</svg>
