<svg width="129" height="44" viewBox="0 0 129 44" fill="none" xmlns="http://www.w3.org/2000/svg">
<path d="M40.3864 34.4065L25.8159 28.1311L35.0487 19.7639L39.2323 27.1213C40.747 29.7901 41.1798 32.3869 40.3864 34.4065ZM33.029 38.1574H14.7077L23.4356 30.2229L38.511 36.7147C37.2126 37.6524 35.3372 38.1574 33.029 38.1574ZM10.5241 38.0852C7.56672 37.941 5.25852 36.7869 4.24868 34.9836C3.52737 33.7574 3.3831 32.2426 3.74375 30.5114L12.2552 25.3901L20.5503 28.9967L10.5241 38.0852ZM13.8421 11.6852L20.2618 17.2393L5.76344 25.9672L13.8421 11.6852ZM16.2224 7.57377C16.3667 7.28524 16.511 7.06884 16.7274 6.78032C18.3142 4.47212 20.2618 3.17376 22.2093 3.17376C23.2913 3.17376 24.4454 3.60654 25.4552 4.39998L20.8388 13.9934L15.2847 9.16064L16.2224 7.57377ZM26.97 23.1541L22.8585 26.8328L15.2126 23.5147L22.4257 19.1869L26.97 23.1541ZM27.6192 6.70818C27.7634 6.99671 27.9798 7.21311 28.1241 7.50163L29.1339 9.16064L33.606 17.0951L29.1339 21.2065L23.0749 15.941L27.547 6.56391C27.6192 6.63604 27.6192 6.70818 27.6192 6.70818ZM41.9732 25.5344L31.0815 6.34753C28.8454 2.30819 25.5273 0 22.1372 0C18.747 0 15.429 2.30819 13.1929 6.34753L2.30113 25.5344C0.0650667 29.5737 -0.295576 33.541 1.43557 36.5705C3.16672 39.6 6.70115 41.3311 11.2454 41.3311H32.9569C37.5011 41.3311 41.1077 39.6 42.7667 36.5705C44.57 33.541 44.2814 29.5016 41.9732 25.5344Z" fill="#0E0C34"/>
<path d="M56.688 13.4886C56.688 14.3542 57.3372 15.0033 58.2028 15.0033C59.0683 15.0033 59.7175 14.3542 59.7175 13.4886V11.0361C59.7175 10.1706 59.0683 9.52137 58.2028 9.52137C57.3372 9.52137 56.688 10.1706 56.688 11.0361V13.4886ZM56.688 18.2492C56.688 18.682 56.3273 18.8984 56.0388 18.8984C55.7503 18.8984 55.3896 18.682 55.3896 18.2492V11.0361C55.3896 9.44924 56.688 8.15088 58.2749 8.15088C59.8618 8.15088 61.1601 9.44924 61.1601 11.0361V13.4886C61.1601 15.0755 59.8618 16.3738 58.2749 16.3738C57.6978 16.3738 57.1208 16.1574 56.7601 15.7968V18.2492H56.688Z" fill="#0E0C34"/>
<path d="M67.4355 15.2918C66.9306 16.0132 65.9207 16.3738 65.0552 16.3738C63.4683 16.3738 62.2421 15.364 62.2421 13.7771V10.6755C62.2421 9.08858 63.4683 8.07874 65.0552 8.07874C65.8486 8.07874 67.0027 8.43939 67.4355 9.1607C67.5076 9.30496 67.5798 9.44923 67.5798 9.52136C67.5798 9.88201 67.2191 10.1705 66.8585 10.1705C66.6421 10.1705 66.4978 10.0984 66.3535 9.88201C66.065 9.52136 65.488 9.37711 65.0552 9.37711C64.0453 9.37711 63.6126 9.88201 63.6126 10.6033V13.705C63.6126 14.4263 64.1175 14.9312 65.0552 14.9312C65.5601 14.9312 65.9929 14.7869 66.3535 14.4263C66.4978 14.2099 66.7142 14.1377 66.8585 14.1377C67.2191 14.1377 67.5798 14.4263 67.5798 14.7869C67.5076 15.0033 67.5076 15.1476 67.4355 15.2918Z" fill="#0E0C34"/>
<path d="M68.9503 8.94432C68.9503 8.51153 69.3109 8.29514 69.5994 8.29514C69.9601 8.29514 70.2486 8.51153 70.2486 8.94432V15.5804C70.2486 16.0132 69.888 16.2296 69.5994 16.2296C69.2388 16.2296 68.9503 16.0132 68.9503 15.5804V8.94432ZM69.6716 5.26562C70.1765 5.26562 70.5371 5.69842 70.5371 6.13121C70.5371 6.63612 70.1044 6.99677 69.6716 6.99677C69.1667 6.99677 68.806 6.56399 68.806 6.13121C68.7339 5.62629 69.1667 5.26562 69.6716 5.26562Z" fill="#0E0C34"/>
<path d="M74.4323 11.3246C74.9372 11.3246 75.2979 11.7574 75.2979 12.1902C75.2979 12.6951 74.8651 13.0557 74.4323 13.0557C73.9274 13.0557 73.5667 12.623 73.5667 12.1902C73.4946 11.7574 73.9274 11.3246 74.4323 11.3246Z" fill="#0E0C34"/>
<path d="M83.5207 15.2918C83.0158 16.0132 82.006 16.3738 81.1404 16.3738C79.5535 16.3738 78.3273 15.364 78.3273 13.7771V10.6755C78.3273 9.08858 79.5535 8.07874 81.1404 8.07874C81.9338 8.07874 83.0879 8.43939 83.5207 9.1607C83.5929 9.30496 83.6649 9.44923 83.6649 9.52136C83.6649 9.88201 83.3043 10.1705 82.9436 10.1705C82.7272 10.1705 82.583 10.0984 82.4387 9.88201C82.1502 9.52136 81.5732 9.37711 81.1404 9.37711C80.1305 9.37711 79.6978 9.88201 79.6978 10.6033V13.705C79.6978 14.4263 80.1305 14.9312 81.1404 14.9312C81.6453 14.9312 82.0781 14.7869 82.4387 14.4263C82.583 14.2099 82.7994 14.1377 82.9436 14.1377C83.3043 14.1377 83.6649 14.4263 83.6649 14.7869C83.5928 15.0033 83.5929 15.1476 83.5207 15.2918Z" fill="#0E0C34"/>
<path d="M88.7142 10.0262C88.5699 10.0262 88.3535 9.9541 88.2093 9.80983C87.9929 9.59344 87.6322 9.52131 87.3437 9.52131C86.5503 9.52131 86.0453 10.0262 86.0453 11.1803V15.6525C86.0453 16.0852 85.6847 16.3016 85.3961 16.3016C85.0355 16.3016 84.7469 16.0852 84.7469 15.6525V11.1803C84.7469 9.59346 85.6125 8.22296 87.3437 8.22296C87.9929 8.22296 88.7863 8.51149 89.2191 8.94427C89.3633 9.08853 89.4355 9.23278 89.4355 9.44918C89.3633 9.66557 89.0027 10.0262 88.7142 10.0262Z" fill="#0E0C34"/>
<path d="M94.4126 11.0361C94.4126 10.1706 93.7634 9.52137 92.8978 9.52137C92.0323 9.52137 91.3831 10.1706 91.3831 11.0361V11.3246H94.4847V11.0361H94.4126ZM95.0618 12.623H91.3109V13.4886C91.3109 14.282 92.1044 15.0033 92.9699 15.0033C93.4749 15.0033 93.9076 14.8591 94.2683 14.4984C94.4126 14.282 94.629 14.2099 94.7732 14.2099C95.1339 14.2099 95.4945 14.4984 95.4945 14.8591C95.4945 15.0033 95.4224 15.1476 95.3503 15.2197C95.3503 15.2197 95.2781 15.2919 95.206 15.4361C94.6289 16.0132 93.7634 16.3017 92.9699 16.3017C91.4552 16.3017 89.9404 15.0755 89.9404 13.4164V11.0361C89.9404 9.44924 91.2388 8.15088 92.8257 8.15088C94.4126 8.15088 95.7109 9.44924 95.7109 11.0361V11.9738C95.7109 12.3345 95.4224 12.623 95.0618 12.623Z" fill="#0E0C34"/>
<path d="M100.76 12.4066L99.3174 12.6951C98.4518 12.9115 98.0191 13.3443 98.0191 13.8492C98.0191 14.4984 98.524 14.9312 99.3896 14.9312C100.183 14.9312 100.76 14.4263 100.76 13.705V12.4066ZM99.3896 16.3738C98.0191 16.3738 96.6486 15.5804 96.6486 13.9214C96.6486 12.4066 97.8748 11.6853 99.1731 11.4689L100.688 11.1083V10.6755C100.688 9.95415 100.327 9.44922 99.3896 9.44922C98.3797 9.44922 98.3076 10.2427 97.6584 10.2427C97.2978 10.2427 97.0092 9.95415 97.0092 9.59349C97.0092 9.3771 97.0814 9.16072 97.2256 9.01645C97.7306 8.36727 98.5961 8.07874 99.3896 8.07874C101.049 8.07874 102.058 9.16071 102.058 10.6755V13.7771C102.058 15.364 100.832 16.3738 99.3896 16.3738Z" fill="#0E0C34"/>
<path d="M103.357 6.85251C103.357 6.41972 103.718 6.20331 104.006 6.20331C104.367 6.20331 104.655 6.41972 104.655 6.85251V8.29513H106.747C107.18 8.29513 107.396 8.65578 107.396 8.9443C107.396 9.23283 107.18 9.59348 106.747 9.59348H104.655V14.2099C104.655 14.6427 104.944 15.0033 105.593 15.0033C106.242 15.0033 106.459 14.4984 106.891 14.4984C107.324 14.4984 107.541 14.859 107.541 15.2197C107.541 15.5082 107.324 15.6525 107.18 15.7968C106.747 16.1574 106.17 16.3017 105.593 16.3017C104.295 16.3017 103.285 15.364 103.285 14.1377V6.85251H103.357Z" fill="#0E0C34"/>
<path d="M108.695 8.94432C108.695 8.51153 109.055 8.29514 109.344 8.29514C109.704 8.29514 109.993 8.51153 109.993 8.94432V15.5804C109.993 16.0132 109.632 16.2296 109.344 16.2296C108.983 16.2296 108.695 16.0132 108.695 15.5804V8.94432ZM109.344 5.26562C109.849 5.26562 110.209 5.69842 110.209 6.13121C110.209 6.63612 109.777 6.99677 109.344 6.99677C108.839 6.99677 108.478 6.56399 108.478 6.13121C108.478 5.62629 108.839 5.26562 109.344 5.26562Z" fill="#0E0C34"/>
<path d="M117.567 9.16066L115.042 15.7967C114.898 16.1574 114.681 16.3016 114.393 16.3016C114.104 16.3016 113.888 16.1574 113.744 15.7967L111.219 9.16066C111.147 9.08853 111.147 8.94427 111.147 8.87214C111.147 8.51148 111.508 8.22296 111.868 8.22296C112.085 8.22296 112.373 8.36723 112.445 8.65575L114.393 13.777L116.34 8.65575C116.485 8.36723 116.701 8.22296 116.917 8.22296C117.278 8.22296 117.639 8.51148 117.639 8.87214C117.639 8.94427 117.639 9.08853 117.567 9.16066Z" fill="#0E0C34"/>
<path d="M122.544 11.0361C122.544 10.1706 121.895 9.52137 121.029 9.52137C120.163 9.52137 119.514 10.1706 119.514 11.0361V11.3246H122.616V11.0361H122.544ZM123.193 12.623H119.442V13.4886C119.442 14.282 120.236 15.0033 121.101 15.0033C121.606 15.0033 122.039 14.8591 122.4 14.4984C122.544 14.282 122.76 14.2099 122.904 14.2099C123.265 14.2099 123.626 14.4984 123.626 14.8591C123.626 15.0033 123.554 15.1476 123.481 15.2197C123.481 15.2197 123.409 15.2919 123.337 15.4361C122.76 16.0132 121.895 16.3017 121.101 16.3017C119.586 16.3017 118.072 15.0755 118.072 13.4164V11.0361C118.072 9.44924 119.37 8.15088 120.957 8.15088C122.544 8.15088 123.842 9.44924 123.842 11.0361V11.9738C123.842 12.3345 123.554 12.623 123.193 12.623Z" fill="#0E0C34"/>
<path d="M58.0586 28.9967C57.2651 28.9967 56.2553 28.6361 55.8225 27.9869C55.7504 27.8427 55.6782 27.6984 55.6782 27.5541C55.6782 27.1935 56.0389 26.9049 56.3995 26.9049C56.6159 26.9049 56.7602 26.9771 56.9045 27.1935C57.193 27.5541 57.6258 27.6984 58.0586 27.6984C58.9963 27.6984 59.5012 27.1213 59.5012 26.6164C59.5012 24.9574 55.7504 25.6066 55.7504 22.9377C55.7504 21.4951 57.0487 20.7738 58.2028 20.7738C59.0684 20.7738 60.0061 21.2066 60.4389 21.9279C60.511 22.0722 60.5832 22.2164 60.5832 22.2886C60.5832 22.6492 60.2225 22.9377 59.8618 22.9377C59.6454 22.9377 59.5012 22.8656 59.3569 22.6492C59.0684 22.2886 58.7077 22.0722 58.2028 22.0722C57.4815 22.0722 57.1208 22.505 57.1208 22.9377C57.1208 24.3082 60.8717 23.8754 60.8717 26.6164C60.7995 28.059 59.5012 28.9967 58.0586 28.9967Z" fill="#0E0C34"/>
<path d="M67.4355 27.8427C66.9306 28.564 65.9207 28.9247 65.0552 28.9247C63.4683 28.9247 62.2421 27.9148 62.2421 26.328V23.2984C62.2421 21.7116 63.4683 20.7017 65.0552 20.7017C65.8486 20.7017 67.0027 21.0624 67.4355 21.7837C67.5076 21.9279 67.5798 22.0722 67.5798 22.1443C67.5798 22.505 67.2191 22.7935 66.8585 22.7935C66.6421 22.7935 66.4978 22.7214 66.3535 22.505C66.065 22.1443 65.488 22.0001 65.0552 22.0001C64.0453 22.0001 63.6126 22.505 63.6126 23.2263V26.328C63.6126 27.0493 64.1175 27.5542 65.0552 27.5542C65.5601 27.5542 65.9929 27.4099 66.3535 27.0493C66.4978 26.8329 66.7142 26.7607 66.8585 26.7607C67.2191 26.7607 67.5798 27.0493 67.5798 27.4099C67.5076 27.6263 67.5076 27.7706 67.4355 27.8427Z" fill="#0E0C34"/>
<path d="M68.9503 21.5672C68.9503 21.1344 69.3109 20.9181 69.5994 20.9181C69.9601 20.9181 70.2486 21.1344 70.2486 21.5672V28.2033C70.2486 28.6361 69.888 28.8525 69.5994 28.8525C69.2388 28.8525 68.9503 28.6361 68.9503 28.2033V21.5672ZM69.6716 17.8164C70.1765 17.8164 70.5371 18.2492 70.5371 18.682C70.5371 19.1869 70.1044 19.5475 69.6716 19.5475C69.1667 19.5475 68.806 19.1148 68.806 18.682C68.7339 18.2492 69.1667 17.8164 69.6716 17.8164Z" fill="#0E0C34"/>
<path d="M75.947 23.587C75.947 22.7214 75.2978 22.0722 74.4322 22.0722C73.5666 22.0722 72.9175 22.7214 72.9175 23.587V23.8755H76.0191V23.587H75.947ZM76.5961 25.246H72.8453V26.1116C72.8453 26.905 73.6388 27.6263 74.5043 27.6263C75.0093 27.6263 75.4421 27.482 75.8027 27.1214C75.947 26.905 76.1634 26.8329 76.3076 26.8329C76.6683 26.8329 77.0289 27.1214 77.0289 27.482C77.0289 27.6263 76.9568 27.7706 76.8847 27.8427C76.8847 27.8427 76.8125 27.9148 76.7404 28.0591C76.1634 28.6362 75.2978 28.9247 74.5043 28.9247C72.9896 28.9247 71.4749 27.6984 71.4749 26.0394V23.587C71.4749 22.0001 72.7732 20.7017 74.3601 20.7017C75.947 20.7017 77.2453 22.0001 77.2453 23.587V24.5247C77.2453 24.8853 76.9568 25.246 76.5961 25.246Z" fill="#0E0C34"/>
<path d="M83.3766 28.8525C83.0159 28.8525 82.7274 28.6361 82.7274 28.2033V23.659C82.7274 22.7935 82.0782 22.1443 81.2127 22.1443C80.3471 22.1443 79.6979 22.7935 79.6979 23.659V28.2033C79.6979 28.6361 79.3373 28.8525 79.0487 28.8525C78.7602 28.8525 78.3995 28.6361 78.3995 28.2033V23.659C78.3995 22.0722 79.6979 20.7738 81.2848 20.7738C82.8717 20.7738 84.17 22.0722 84.17 23.659V28.2033C84.0258 28.6361 83.7373 28.8525 83.3766 28.8525Z" fill="#0E0C34"/>
<path d="M90.5175 27.8427C90.0126 28.564 89.0028 28.9247 88.1372 28.9247C86.5503 28.9247 85.3241 27.9148 85.3241 26.328V23.2984C85.3241 21.7116 86.5503 20.7017 88.1372 20.7017C88.9306 20.7017 90.0847 21.0624 90.5175 21.7837C90.5896 21.9279 90.6618 22.0722 90.6618 22.1443C90.6618 22.505 90.3011 22.7935 89.9405 22.7935C89.7241 22.7935 89.5798 22.7214 89.4355 22.505C89.147 22.1443 88.57 22.0001 88.1372 22.0001C87.1273 22.0001 86.6946 22.505 86.6946 23.2263V26.328C86.6946 27.0493 87.1995 27.5542 88.1372 27.5542C88.6421 27.5542 89.0749 27.4099 89.4355 27.0493C89.5798 26.8329 89.7962 26.7607 89.9405 26.7607C90.3011 26.7607 90.6618 27.0493 90.6618 27.4099C90.6618 27.6263 90.5896 27.7706 90.5175 27.8427Z" fill="#0E0C34"/>
<path d="M96.2159 23.587C96.2159 22.7214 95.5667 22.0722 94.7012 22.0722C93.8356 22.0722 93.1864 22.7214 93.1864 23.587V23.8755H96.288V23.587H96.2159ZM96.9372 25.246H93.1864V26.1116C93.1864 26.905 93.9798 27.6263 94.8454 27.6263C95.3503 27.6263 95.7831 27.482 96.1438 27.1214C96.288 26.905 96.5044 26.8329 96.6487 26.8329C97.0093 26.8329 97.37 27.1214 97.37 27.482C97.37 27.6263 97.2979 27.7706 97.2258 27.8427C97.2258 27.8427 97.1536 27.9148 97.0815 28.0591C96.5044 28.6362 95.6388 28.9247 94.8454 28.9247C93.3306 28.9247 91.8159 27.6984 91.8159 26.0394V23.587C91.8159 22.0001 93.1143 20.7017 94.7012 20.7017C96.288 20.7017 97.5864 22.0001 97.5864 23.587V24.5247C97.5864 24.8853 97.2979 25.246 96.9372 25.246Z" fill="#0E0C34"/>
<path d="M104.727 26.1115C104.727 26.9771 105.377 27.6263 106.242 27.6263C107.108 27.6263 107.757 26.9771 107.757 26.1115V23.659C107.757 22.7935 107.108 22.1443 106.242 22.1443C105.377 22.1443 104.727 22.7935 104.727 23.659V26.1115ZM104.727 30.8722C104.727 31.3049 104.367 31.5213 104.078 31.5213C103.717 31.5213 103.429 31.3049 103.429 30.8722V23.659C103.429 22.0722 104.727 20.7738 106.314 20.7738C107.901 20.7738 109.199 22.0722 109.199 23.659V26.1115C109.199 27.6984 107.901 28.9967 106.314 28.9967C105.737 28.9967 105.16 28.7804 104.799 28.4197V30.8722H104.727Z" fill="#0E0C34"/>
<path d="M114.465 25.0296L113.022 25.3181C112.157 25.5345 111.724 25.9673 111.724 26.4722C111.724 27.1214 112.229 27.5542 113.095 27.5542C113.888 27.5542 114.465 27.0493 114.465 26.328V25.0296ZM113.095 28.9968C111.724 28.9968 110.354 28.2034 110.354 26.5443C110.354 25.0296 111.58 24.3083 112.878 24.0919L114.393 23.7312V23.2984C114.393 22.5771 114.032 22.0722 113.095 22.0722C112.085 22.0722 112.013 22.8657 111.363 22.8657C111.003 22.8657 110.714 22.5771 110.714 22.2165C110.714 22.0001 110.786 21.7837 110.931 21.6394C111.436 20.9903 112.301 20.7017 113.095 20.7017C114.754 20.7017 115.763 21.7837 115.763 23.2984V26.4001C115.835 27.987 114.537 28.9968 113.095 28.9968Z" fill="#0E0C34"/>
<path d="M121.101 22.6492C120.957 22.6492 120.74 22.577 120.596 22.4328C120.38 22.2164 120.019 22.1442 119.731 22.1442C118.937 22.1442 118.432 22.6492 118.432 23.8033V28.2754C118.432 28.7082 118.072 28.9246 117.783 28.9246C117.422 28.9246 117.134 28.7082 117.134 28.2754V23.8033C117.134 22.2164 117.999 20.8459 119.731 20.8459C120.38 20.8459 121.173 21.1344 121.606 21.5672C121.75 21.7115 121.822 21.8557 121.822 22.0721C121.75 22.2885 121.462 22.6492 121.101 22.6492Z" fill="#0E0C34"/>
<path d="M127.665 28.8525C127.449 28.8525 127.304 28.7803 127.16 28.5639L124.852 25.4623L124.058 26.4V28.2033C124.058 28.6361 123.698 28.8525 123.409 28.8525C123.049 28.8525 122.76 28.6361 122.76 28.2033V18.5377C122.76 18.1049 123.121 17.8885 123.409 17.8885C123.77 17.8885 124.058 18.1049 124.058 18.5377V24.3803L126.872 21.1344C127.016 20.9902 127.16 20.8459 127.377 20.8459C127.737 20.8459 128.098 21.1344 128.098 21.4951C128.098 21.6394 128.026 21.7836 127.954 21.9279L125.862 24.3803L128.386 27.6984C128.458 27.8426 128.531 27.9869 128.531 28.1312C128.386 28.564 128.026 28.8525 127.665 28.8525Z" fill="#0E0C34"/>
<path d="M59.5733 35.9934V39.1672C59.5733 39.8164 59.3569 40.3213 58.9241 40.7541C58.4913 41.1869 57.9143 41.4032 57.2651 41.4032C56.6159 41.4032 56.0389 41.1868 55.6061 40.8262C55.1733 40.4655 54.9569 39.9606 54.9569 39.3114C54.9569 38.7344 55.1733 38.3016 55.534 37.9409C55.9668 37.5803 56.4717 37.3639 57.0487 37.2196L59.0684 36.7869V36.0655C59.0684 35.5606 58.9241 35.1278 58.6356 34.8393C58.3471 34.5508 57.9143 34.4065 57.3372 34.4065C57.0487 34.4065 56.7602 34.4787 56.5438 34.5508C56.3274 34.6229 56.1831 34.7672 56.0389 34.8393C55.9667 34.9114 55.8225 35.0557 55.7504 35.1278C55.6782 35.2 55.6061 35.2721 55.534 35.2721C55.4618 35.2721 55.3897 35.2721 55.3176 35.2C55.2454 35.1278 55.2455 35.0557 55.2455 34.9836C55.2455 34.9114 55.3176 34.7672 55.3897 34.695C55.8225 34.1901 56.4717 33.9016 57.2651 33.9016C57.9864 33.9016 58.5635 34.118 58.9963 34.4787C59.3569 34.8393 59.5733 35.3442 59.5733 35.9934ZM59.0684 37.2918L57.1208 37.7246C56.6159 37.8688 56.1832 38.0131 55.8946 38.3016C55.6061 38.5901 55.4618 38.8787 55.4618 39.3114C55.4618 39.7442 55.6061 40.177 55.9668 40.3934C56.3274 40.6819 56.7602 40.8262 57.2651 40.8262C57.77 40.8262 58.2028 40.6819 58.5635 40.3213C58.9241 40.0328 59.0684 39.6 59.0684 39.095V37.2918Z" fill="#0E0C34"/>
<path d="M66.2814 34.2623L63.6846 41.0426C63.6125 41.1868 63.5404 41.259 63.4683 41.259C63.3961 41.259 63.2519 41.1868 63.2519 41.0426L60.6552 34.2623C60.6552 34.1901 60.6552 34.118 60.6552 33.9737C60.7273 33.9016 60.7994 33.8295 60.8715 33.8295C60.9437 33.8295 61.0879 33.9016 61.0879 34.0459L63.4683 40.177L65.8486 34.0459C65.9207 33.9016 65.9929 33.9016 66.065 33.9016C66.1371 33.9016 66.2092 33.9737 66.2814 34.0459C66.2814 34.118 66.2814 34.1901 66.2814 34.2623Z" fill="#0E0C34"/>
<path d="M72.1962 36.3541V37.2918C72.1962 37.3639 72.1961 37.4361 72.124 37.5082C72.0519 37.5803 71.9797 37.5803 71.9076 37.5803H67.6519V38.8787C67.6519 39.3836 67.8683 39.8885 68.3011 40.2492C68.7338 40.6098 69.2388 40.8262 69.8158 40.8262C70.1043 40.8262 70.465 40.7541 70.7535 40.6098C71.1142 40.4656 71.3306 40.3213 71.4748 40.1049C71.547 40.0328 71.6191 39.9607 71.6912 39.9607C71.7634 39.9607 71.8355 39.9607 71.9076 40.0328C71.9797 40.1049 71.9797 40.1771 71.9797 40.2492C71.9797 40.3213 71.9076 40.3934 71.8355 40.5377C71.3306 41.0426 70.6814 41.3312 69.8158 41.3312C69.0945 41.3312 68.5174 41.1148 67.9404 40.6098C67.4355 40.1049 67.147 39.5279 67.147 38.8066V36.282C67.147 35.5607 67.3634 34.9836 67.8683 34.4787C68.3732 33.9738 68.9503 33.7574 69.6716 33.7574C70.3929 33.7574 70.9699 33.9738 71.4748 34.4787C71.9798 35.0557 72.1962 35.6328 72.1962 36.3541ZM71.6912 37.0033V36.3541C71.6912 35.7771 71.4748 35.3443 71.1142 34.9836C70.7535 34.623 70.2486 34.4066 69.7437 34.4066C69.1666 34.4066 68.7338 34.623 68.3732 34.9836C68.0125 35.3443 67.7961 35.8492 67.7961 36.3541V37.0033H71.6912Z" fill="#0E0C34"/>
<path d="M73.5666 31.7377C73.4945 31.6655 73.4224 31.5213 73.4224 31.4491C73.4224 31.3049 73.4945 31.2327 73.5666 31.1606C73.6388 31.0885 73.783 31.0164 73.8552 31.0164C73.9994 31.0164 74.0715 31.0885 74.1437 31.1606C74.2158 31.2327 74.2879 31.377 74.2879 31.4491C74.2879 31.5934 74.2158 31.6655 74.1437 31.7377C74.0715 31.8098 73.9273 31.8819 73.8552 31.8819C73.783 31.8098 73.6388 31.8098 73.5666 31.7377ZM73.6388 40.9704V34.1901C73.6388 34.118 73.6388 34.0458 73.7109 33.9737C73.783 33.9016 73.8552 33.9016 73.9273 33.9016C73.9994 33.9016 74.0715 33.9016 74.1437 33.9737C74.2158 34.0458 74.2158 34.118 74.2158 34.1901V40.9704C74.2158 41.0426 74.2158 41.1147 74.1437 41.1868C74.0715 41.259 73.9994 41.259 73.9273 41.259C73.8552 41.259 73.783 41.259 73.7109 41.1868C73.6388 41.1147 73.6388 41.0426 73.6388 40.9704Z" fill="#0E0C34"/>
<path d="M79.6257 34.6229C79.6257 34.695 79.6257 34.7672 79.5535 34.8393C79.4814 34.9114 79.4093 34.9114 79.3371 34.9114C79.265 34.9114 79.1929 34.8393 79.0486 34.7672C78.688 34.4786 78.3273 34.3344 77.8945 34.3344C77.3896 34.3344 76.9568 34.5508 76.6683 34.9114C76.3798 35.2721 76.2355 35.777 76.2355 36.4262V40.9704C76.2355 41.0426 76.2355 41.1147 76.1634 41.1868C76.0912 41.259 76.0191 41.259 75.947 41.259C75.8748 41.259 75.8027 41.259 75.7306 41.1868C75.6585 41.1147 75.6584 41.0426 75.6584 40.9704V36.4262C75.6584 35.6327 75.8748 35.0557 76.2355 34.5508C76.5961 34.0459 77.1732 33.8295 77.8945 33.8295C78.183 33.8295 78.4716 33.9016 78.7601 33.9737C79.0486 34.118 79.3371 34.2622 79.4814 34.4065C79.6256 34.4786 79.6257 34.5508 79.6257 34.6229Z" fill="#0E0C34"/>
<path d="M85.4682 36.3541V38.8786C85.4682 39.6 85.2518 40.177 84.7469 40.6819C84.242 41.1868 83.6649 41.4032 82.9436 41.4032C82.2223 41.4032 81.6453 41.1868 81.1404 40.6819C80.6355 40.177 80.4191 39.6 80.4191 38.8786V36.3541C80.4191 35.6327 80.6355 35.0557 81.1404 34.5508C81.6453 34.0459 82.2223 33.8295 82.9436 33.8295C83.6649 33.8295 84.242 34.0459 84.7469 34.5508C85.1797 35.0557 85.4682 35.6327 85.4682 36.3541ZM84.8912 38.8786V36.3541C84.8912 35.777 84.6748 35.3442 84.3141 34.9836C83.9535 34.6229 83.4486 34.4065 82.9436 34.4065C82.3666 34.4065 81.9338 34.6229 81.5732 34.9836C81.2125 35.3442 80.9961 35.8491 80.9961 36.3541V38.8786C80.9961 39.4557 81.2125 39.8885 81.5732 40.2491C81.9338 40.6098 82.4387 40.8262 82.9436 40.8262C83.5207 40.8262 83.9535 40.6098 84.3141 40.2491C84.6748 39.8885 84.8912 39.3836 84.8912 38.8786Z" fill="#0E0C34"/>
<path d="M93.6912 34.6229C93.6912 34.695 93.6912 34.7672 93.6191 34.8393C93.547 34.9114 93.4748 34.9114 93.4027 34.9114C93.3305 34.9114 93.2584 34.8393 93.1142 34.7672C92.7535 34.4786 92.3928 34.3344 91.96 34.3344C91.4551 34.3344 91.0224 34.5508 90.7339 34.9114C90.4453 35.2721 90.301 35.777 90.301 36.4262V40.9704C90.301 41.0426 90.3011 41.1147 90.2289 41.1868C90.1568 41.259 90.0847 41.259 90.0125 41.259C89.9404 41.259 89.8682 41.259 89.7961 41.1868C89.724 41.1147 89.724 41.0426 89.724 40.9704V36.4262C89.724 35.6327 89.9404 35.0557 90.301 34.5508C90.6617 34.0459 91.2387 33.8295 91.96 33.8295C92.2486 33.8295 92.5371 33.9016 92.8256 33.9737C93.1142 34.118 93.4027 34.2622 93.5469 34.4065C93.6912 34.4786 93.6912 34.5508 93.6912 34.6229Z" fill="#0E0C34"/>
<path d="M99.5339 36.3541V37.2918C99.5339 37.3639 99.5339 37.4361 99.4618 37.5082C99.3897 37.5803 99.3176 37.5803 99.2454 37.5803H94.9897V38.8787C94.9897 39.3836 95.2061 39.8885 95.6389 40.2492C96.0717 40.6098 96.5766 40.8262 97.1536 40.8262C97.4421 40.8262 97.8028 40.7541 98.0913 40.6098C98.452 40.4656 98.6683 40.3213 98.8126 40.1049C98.8847 40.0328 98.9569 39.9607 99.029 39.9607C99.1012 39.9607 99.1733 39.9607 99.2454 40.0328C99.3176 40.1049 99.3175 40.1771 99.3175 40.2492C99.3175 40.3213 99.2454 40.3934 99.1733 40.5377C98.6683 41.0426 98.0192 41.3312 97.1536 41.3312C96.4323 41.3312 95.8553 41.1148 95.2782 40.6098C94.7733 40.1049 94.4847 39.5279 94.4847 38.8066V36.282C94.4847 35.5607 94.7011 34.9836 95.2061 34.4787C95.711 33.9738 96.288 33.7574 97.0093 33.7574C97.7306 33.7574 98.3077 33.9738 98.8126 34.4787C99.3175 35.0557 99.5339 35.6328 99.5339 36.3541ZM99.029 37.0033V36.3541C99.029 35.7771 98.8126 35.3443 98.452 34.9836C98.0913 34.623 97.5864 34.4066 97.0815 34.4066C96.5044 34.4066 96.0716 34.623 95.711 34.9836C95.3503 35.3443 95.1339 35.8492 95.1339 36.3541V37.0033H99.029Z" fill="#0E0C34"/>
<path d="M105.881 36.3541V41.4754C105.881 42.1967 105.665 42.7737 105.16 43.2786C104.655 43.7836 104.078 44 103.357 44C102.996 44 102.563 43.9278 102.131 43.7836C101.698 43.6393 101.409 43.3508 101.193 43.0622C101.193 42.9901 101.121 42.9901 101.121 42.918C101.121 42.8459 101.121 42.7737 101.193 42.7016C101.265 42.6295 101.337 42.6294 101.409 42.6294H101.481C101.481 42.6294 101.554 42.6295 101.554 42.7016C101.554 42.7016 101.554 42.7737 101.626 42.7737L101.698 42.8459C102.131 43.2786 102.636 43.4229 103.285 43.4229C103.862 43.4229 104.295 43.2065 104.655 42.8459C105.016 42.4852 105.232 41.9803 105.232 41.4754V40.177C104.727 40.8262 104.078 41.1147 103.213 41.1147C102.491 41.1147 101.914 40.8983 101.409 40.3934C100.904 39.8885 100.688 39.3114 100.688 38.5901V36.3541C100.688 35.6327 100.904 35.0557 101.409 34.5508C101.914 34.0459 102.491 33.8295 103.213 33.8295C103.934 33.8295 104.511 34.0459 105.016 34.5508C105.665 35.0557 105.881 35.6327 105.881 36.3541ZM105.377 38.5901V36.3541C105.377 35.777 105.16 35.3442 104.799 34.9836C104.439 34.6229 103.934 34.4065 103.429 34.4065C102.852 34.4065 102.419 34.6229 102.058 34.9836C101.698 35.3442 101.481 35.8491 101.481 36.3541V38.5901C101.481 39.1672 101.698 39.6 102.058 39.9606C102.419 40.3213 102.924 40.5377 103.429 40.5377C104.006 40.5377 104.439 40.3213 104.799 39.9606C105.16 39.6 105.377 39.1672 105.377 38.5901Z" fill="#0E0C34"/>
<path d="M107.396 31.7377C107.324 31.6655 107.252 31.5213 107.252 31.4491C107.252 31.3049 107.324 31.2327 107.396 31.1606C107.468 31.0885 107.613 31.0164 107.685 31.0164C107.829 31.0164 107.901 31.0885 107.973 31.1606C108.045 31.2327 108.118 31.377 108.118 31.4491C108.118 31.5934 108.045 31.6655 107.973 31.7377C107.901 31.8098 107.757 31.8819 107.685 31.8819C107.613 31.8098 107.468 31.8098 107.396 31.7377ZM107.396 40.9704V34.1901C107.396 34.118 107.396 34.0458 107.468 33.9737C107.54 33.9016 107.613 33.9016 107.685 33.9016C107.757 33.9016 107.829 33.9016 107.901 33.9737C107.973 34.0458 107.973 34.118 107.973 34.1901V40.9704C107.973 41.0426 107.973 41.1147 107.901 41.1868C107.829 41.259 107.757 41.259 107.685 41.259C107.613 41.259 107.54 41.259 107.468 41.1868C107.468 41.1147 107.396 41.0426 107.396 40.9704Z" fill="#0E0C34"/>
<path d="M114.465 36.3541V38.8786C114.465 39.6 114.249 40.177 113.744 40.6819C113.239 41.1868 112.662 41.4032 111.94 41.4032C111.219 41.4032 110.642 41.1868 110.137 40.6819C109.632 40.177 109.416 39.6 109.416 38.8786V36.3541C109.416 35.6327 109.632 35.0557 110.137 34.5508C110.642 34.0459 111.219 33.8295 111.94 33.8295C112.662 33.8295 113.239 34.0459 113.744 34.5508C114.249 35.0557 114.465 35.6327 114.465 36.3541ZM113.96 38.8786V36.3541C113.96 35.777 113.744 35.3442 113.383 34.9836C113.022 34.6229 112.518 34.4065 112.013 34.4065C111.436 34.4065 111.003 34.6229 110.642 34.9836C110.281 35.3442 110.065 35.8491 110.065 36.3541V38.8786C110.065 39.4557 110.281 39.8885 110.642 40.2491C111.003 40.6098 111.508 40.8262 112.013 40.8262C112.59 40.8262 113.022 40.6098 113.383 40.2491C113.744 39.8885 113.96 39.3836 113.96 38.8786Z" fill="#0E0C34"/>
<path d="M121.029 36.3541V41.0426C121.029 41.1147 121.029 41.1868 120.957 41.259C120.885 41.3311 120.813 41.3311 120.74 41.3311C120.668 41.3311 120.596 41.3311 120.524 41.259C120.452 41.1868 120.452 41.1147 120.452 41.0426V36.3541C120.452 35.777 120.235 35.3442 119.875 34.9836C119.514 34.6229 119.009 34.4065 118.504 34.4065C117.927 34.4065 117.494 34.6229 117.134 34.9836C116.773 35.3442 116.557 35.8491 116.557 36.3541V41.0426C116.557 41.1147 116.557 41.1868 116.485 41.259C116.412 41.3311 116.34 41.3311 116.268 41.3311C116.196 41.3311 116.124 41.3311 116.052 41.259C115.98 41.1868 115.98 41.1147 115.98 41.0426V36.3541C115.98 35.6327 116.196 35.0557 116.701 34.5508C117.206 34.0459 117.783 33.8295 118.504 33.8295C119.226 33.8295 119.803 34.0459 120.308 34.5508C120.74 35.0557 121.029 35.6327 121.029 36.3541Z" fill="#0E0C34"/>
</svg>
