<svg width="161" height="32" viewBox="0 0 161 32" fill="none" xmlns="http://www.w3.org/2000/svg">
<path d="M160.345 0H70.4271V32H160.345V0Z" fill="#0E0C34"/>
<path fill-rule="evenodd" clip-rule="evenodd" d="M33.4556 25.1378V7.50017C37.0887 7.50017 41.7752 6.98598 44.7801 8.5322C51.0584 11.7629 50.7875 21.0516 44.7903 24.114C41.7889 25.6466 37.1063 25.1377 33.4556 25.1377V25.1378ZM23.3242 14.8597H28.8411V17.9378L23.3507 17.9382L23.3243 21.8992H30.4951L30.5013 25.1377H19.2358L19.2165 7.5001H30.5151L30.5013 10.7386H23.3556L23.3242 14.8596V14.8597ZM4.37754 23.0713C5.30997 20.7961 6.05965 20.1047 7.61089 21.0664C11.5029 23.4789 13.4122 21.1531 12.6539 19.3846C12.3926 18.7752 11.7061 18.4196 10.8574 18.1388C9.25485 17.6085 7.85991 17.3729 6.66292 16.417C4.03971 14.3225 4.73949 10.0356 7.30764 8.38876C9.79688 6.79243 14.8402 7.10193 16.3553 9.27933C14.3273 14.0269 13.9971 10.2628 10.6233 10.5963C8.80623 10.7759 8.20034 12.6434 9.63625 13.5995C11.311 14.7146 15.4722 14.7794 16.4096 17.8682C18.5969 25.0755 8.82925 27.4591 4.37747 23.0714L4.37754 23.0713ZM50.2593 7.59743C54.9709 7.56643 54.5108 7.09313 55.9602 10.147C56.5224 11.3314 58.2356 14.5266 58.5123 15.5745C59.7507 14.17 61.4465 8.11307 62.8961 7.67304C63.4658 7.5001 66.0702 7.59427 66.8479 7.59427C66.4929 9.15279 60.64 17.5621 60.5816 19.0365C60.5042 20.9935 60.5886 23.1568 60.5886 25.1378H56.5008C56.5008 23.16 56.5305 21.1621 56.51 19.1876C56.4974 17.9699 55.4023 16.6146 54.5972 15.1951C53.853 13.8827 50.5316 8.44807 50.2593 7.59743ZM0.357056 31.9979H70.4272V0H0.357056V31.9979H0.357056Z" fill="#FDFCFF"/>
<path fill-rule="evenodd" clip-rule="evenodd" d="M37.5899 10.7388C39.7217 10.7388 41.6732 10.4627 43.2499 11.662C44.4295 12.5591 45.1544 14.1595 45.1539 16.3191C45.1526 22.3132 40.7944 21.8992 37.5611 21.8992L37.5898 10.7387L37.5899 10.7388ZM33.4556 25.1379C37.1063 25.1379 41.7889 25.6468 44.7902 24.1141C50.7874 21.0516 51.0584 11.763 44.7801 8.53234C41.7752 6.98612 37.0887 7.50031 33.4556 7.50031V25.138V25.1379Z" fill="#0E0C34"/>
<path fill-rule="evenodd" clip-rule="evenodd" d="M119.2 10.9665C126.546 9.04709 127.452 20.3312 122.039 21.7003C114.756 23.5425 113.701 12.4033 119.2 10.9665ZM111.617 17.599C112.178 22.4616 116.353 25.8731 121.941 25.249C126.736 24.7131 130.29 20.5713 129.61 15.0417C128.228 3.8002 110.177 5.12517 111.617 17.599H111.617Z" fill="#FDFCFF"/>
<path fill-rule="evenodd" clip-rule="evenodd" d="M99.5214 10.9664C106.868 9.04703 107.773 20.3311 102.361 21.7002C95.0775 23.5425 94.0224 12.4032 99.5214 10.9664ZM91.9382 17.599C92.4987 22.4685 96.6844 25.8721 102.262 25.2489C107.058 24.7129 110.611 20.5715 109.931 15.0416C108.549 3.80103 90.5021 5.12318 91.9382 17.599H91.9382Z" fill="#FDFCFF"/>
<path fill-rule="evenodd" clip-rule="evenodd" d="M23.3556 10.7387H30.5014L30.5151 7.50018H19.2166L19.2359 25.1378H30.5014L30.4952 21.8992H23.3243L23.3507 17.9382L28.8411 17.9378V14.8597H23.3242L23.3556 10.7387Z" fill="#0E0C34"/>
<path fill-rule="evenodd" clip-rule="evenodd" d="M144.05 23.0385C144.716 23.637 144.954 23.8582 145.817 24.2898C146.511 24.6369 147.224 24.9059 148.042 25.0962C149.745 25.4926 151.731 25.3684 153.172 24.6579C154.465 24.0205 155.475 22.9958 155.977 21.3916C157.345 17.0161 154.545 15.4718 151.387 14.4013C150.12 13.9721 147.773 13.3726 148.694 11.5553C149.435 10.0938 151.709 10.6191 152.913 11.2685C154.731 12.2491 154.833 11.7271 155.984 9.27939C153.473 6.19045 145.221 6.5227 144.697 12.008C144.247 16.7075 147.573 17.1511 150.366 18.1387C151.174 18.4243 151.966 18.6942 152.229 19.3153C152.562 20.0986 152.319 21.0643 151.796 21.5252C149.294 23.7326 146.587 19.0913 145.087 21.2206C144.755 21.6923 144.222 22.5015 144.05 23.0385Z" fill="#FDFCFF"/>
<path fill-rule="evenodd" clip-rule="evenodd" d="M4.37769 23.0715C8.82947 27.4592 18.5972 25.0756 16.4098 17.8683C15.4724 14.7796 11.3112 14.7147 9.63647 13.5996C8.20056 12.6436 8.80651 10.776 10.6235 10.5964C13.9973 10.2629 14.3275 14.027 16.3556 9.27944C14.8404 7.10204 9.7971 6.79253 7.30785 8.38886C4.73963 10.0358 4.03993 14.3226 6.66314 16.4171C7.86012 17.3729 9.25507 17.6086 10.8577 18.1389C11.7062 18.4197 12.3928 18.7753 12.6541 19.3847C13.4125 21.1532 11.5031 23.479 7.6111 21.0665C6.05979 20.1049 5.31019 20.7962 4.37775 23.0714L4.37769 23.0715Z" fill="#0E0C34"/>
<path fill-rule="evenodd" clip-rule="evenodd" d="M50.2594 7.59752C50.5318 8.44817 53.853 13.8828 54.5973 15.1952C55.4024 16.6147 56.4975 17.97 56.5101 19.1877C56.5306 21.1622 56.5009 23.1601 56.5009 25.1379H60.5886C60.5886 23.1569 60.5043 20.9936 60.5817 19.0366C60.64 17.5622 66.493 9.15289 66.848 7.59436C66.0703 7.59436 63.4659 7.5002 62.8962 7.67313C61.4465 8.11316 59.7508 14.1701 58.5124 15.5746C58.2357 14.5267 56.5224 11.3315 55.9603 10.1471C54.5108 7.09323 54.971 7.56653 50.2594 7.59752Z" fill="#0E0C34"/>
<path fill-rule="evenodd" clip-rule="evenodd" d="M76.538 10.7634L81.3999 10.7984C81.5364 14.8104 81.4211 20.935 81.4219 25.1714C82.6657 25.1779 84.3918 25.309 85.5662 25.0774V10.7726L90.3221 10.7701C90.5939 9.95419 90.4321 8.39786 90.4321 7.46893L76.538 7.50564L76.538 10.7634Z" fill="#FDFCFF"/>
<path fill-rule="evenodd" clip-rule="evenodd" d="M132.269 25.1705H142.858V21.8694L136.424 21.8246L136.424 7.46747H132.285L132.269 25.1705Z" fill="#FDFCFF"/>
<path fill-rule="evenodd" clip-rule="evenodd" d="M99.5213 10.9663C94.0223 12.4031 95.0774 23.5424 102.361 21.7001C107.773 20.331 106.867 9.04688 99.5213 10.9663Z" fill="#0E0C34"/>
<path fill-rule="evenodd" clip-rule="evenodd" d="M119.2 10.9663C113.701 12.4031 114.756 23.5424 122.039 21.7001C127.452 20.331 126.546 9.04688 119.2 10.9663Z" fill="#0E0C34"/>
<path fill-rule="evenodd" clip-rule="evenodd" d="M37.5613 21.8994C40.7945 21.8994 45.1527 22.3133 45.154 16.3192C45.1545 14.1596 44.4297 12.5593 43.2501 11.6621C41.6732 10.4628 39.7218 10.7389 37.59 10.7389L37.5613 21.8994L37.5613 21.8994Z" fill="#FDFCFF"/>
</svg>
